<svg width="56" height="55" viewBox="0 0 56 55" fill="none" xmlns="http://www.w3.org/2000/svg">
<path d="M38.9149 51.5012H42.0001C42.2322 51.5012 42.4547 51.409 42.6188 51.2449C42.7829 51.0808 42.8751 50.8582 42.8751 50.6262V30.5012C42.8751 30.2691 42.7829 30.0466 42.6188 29.8825C42.4547 29.7184 42.2322 29.6262 42.0001 29.6262H40.5336C39.9901 28.5752 39.359 27.5718 38.6471 26.6267C42.4872 22.5675 45.3327 17.6723 46.9596 12.3266L50.7501 13.4107C51.0495 13.495 51.3659 13.498 51.6668 13.4193C51.9677 13.3407 52.2422 13.1833 52.4621 12.9634C52.682 12.7434 52.8393 12.4688 52.9178 12.1679C52.9963 11.8669 52.9932 11.5505 52.9087 11.2512L50.17 1.6638C50.0943 1.39893 49.9572 1.15566 49.7697 0.953789C49.5823 0.751919 49.3499 0.597148 49.0913 0.502071C48.8328 0.406993 48.5554 0.374293 48.2819 0.406632C48.0083 0.438971 47.7462 0.535435 47.517 0.688176L39.2692 6.18668C39.0142 6.35671 38.8083 6.59075 38.6721 6.86538C38.5359 7.14001 38.4743 7.44559 38.4933 7.75153C38.5124 8.05748 38.6114 8.35305 38.7806 8.60866C38.9498 8.86428 39.1832 9.07097 39.4574 9.20805L42.7456 10.8522C41.6081 15.2368 37.6496 19.7037 33.2527 21.6147C31.6627 20.5823 29.9394 19.7713 28.1305 19.2041C28.4107 18.9181 28.6213 18.5715 28.7458 18.191C28.8703 17.8105 28.9054 17.4064 28.8485 17.0101C28.7915 16.6139 28.644 16.2361 28.4173 15.9061C28.1907 15.576 27.891 15.3027 27.5416 15.1073L29.4474 11.6791C29.464 11.6493 29.4789 11.6186 29.492 11.5872C29.7145 11.0086 29.7972 10.3858 29.7335 9.76922C29.6698 9.15267 29.4614 8.55987 29.1254 8.03905C28.9151 7.69406 28.622 7.40701 28.2727 7.20394C27.9234 7.00088 27.529 6.88822 27.1251 6.87618H16.6251C16.2215 6.88794 15.8272 7.0002 15.4779 7.2028C15.1287 7.40539 14.8355 7.69192 14.6249 8.03643C14.2888 8.55724 14.0804 9.15004 14.0167 9.76659C13.953 10.3831 14.0358 11.006 14.2582 11.5845C14.2713 11.616 14.2862 11.6467 14.3029 11.6764L16.2086 15.1012C15.8591 15.2966 15.5594 15.5701 15.3327 15.9002C15.1061 16.2303 14.9585 16.6082 14.9017 17.0046C14.8448 17.401 14.8801 17.8052 15.0047 18.1857C15.1294 18.5663 15.3402 18.9129 15.6206 19.1988C12.357 20.2167 9.39122 22.0159 6.98087 24.4402C4.57052 26.8646 2.78849 29.8407 1.78955 33.1102C0.790618 36.3797 0.604982 39.8436 1.24877 43.201C1.89256 46.5585 3.3463 49.7081 5.48374 52.3762H1.75011V54.1262H54.2501V52.3762H38.2604C38.4887 52.0918 38.7022 51.7969 38.9149 51.5012ZM41.1251 49.7512H39.3751V31.3762H41.1251V49.7512ZM44.6085 10.5433C44.6451 10.3556 44.6193 10.1611 44.5349 9.98947C44.4505 9.81786 44.3123 9.67862 44.1412 9.59305L40.2396 7.64268L48.4865 2.14418L51.2252 11.7272L46.6149 10.4094C46.3937 10.3464 46.1567 10.3729 45.9549 10.4832C45.7532 10.5936 45.603 10.7789 45.5369 10.9992C43.1149 19.0492 38.6646 25.4288 33.0077 28.9655L29.163 31.3674C29.1373 31.3848 29.1072 31.3945 29.0762 31.3954C29.0453 31.3964 29.0147 31.3885 28.988 31.3727C28.9526 31.3538 28.9232 31.3253 28.9032 31.2905C28.8833 31.2557 28.8735 31.2159 28.8751 31.1758V25.1637C28.874 25.1188 28.8867 25.0746 28.9114 25.037C28.9361 24.9995 28.9717 24.9704 29.0134 24.9537L32.8389 23.6499C38.4634 21.7337 43.5226 16.0987 44.6085 10.5433ZM35.0001 37.5012V49.7512H33.2501V37.5012H35.0001ZM31.5001 36.6262C31.4982 38.0047 31.1998 39.3667 30.6251 40.6197V40.1262C30.6251 39.8941 30.5329 39.6715 30.3688 39.5075C30.2047 39.3434 29.9822 39.2512 29.7501 39.2512H26.2501C26.018 39.2512 25.7955 39.3434 25.6314 39.5075C25.4673 39.6715 25.3751 39.8941 25.3751 40.1262V45.5809C23.8381 46.1843 22.1717 46.3821 20.5362 46.1554C18.9007 45.9286 17.351 45.285 16.0361 44.2862C14.7212 43.2875 13.6854 41.9672 13.0282 40.4525C12.371 38.9377 12.1145 37.2794 12.2834 35.6368C12.4524 33.9943 13.041 32.4229 13.9928 31.0736C14.9445 29.7243 16.2274 28.6426 17.7181 27.9324C19.2087 27.2222 20.857 26.9074 22.5044 27.0183C24.1519 27.1292 25.7431 27.6621 27.1251 28.5657V31.1758C27.1241 31.5277 27.2172 31.8735 27.395 32.1772C27.5727 32.4809 27.8285 32.7316 28.1357 32.903C28.4359 33.072 28.7763 33.1564 29.1207 33.1473C29.465 33.1382 29.8005 33.036 30.0914 32.8514L30.5761 32.5478C31.1794 33.8231 31.4949 35.2154 31.5001 36.6262ZM28.8751 41.0012V49.7512H27.1251V41.0012H28.8751ZM16.0791 9.0103C16.1346 8.90871 16.2127 8.82123 16.3074 8.75462C16.402 8.68802 16.5107 8.64407 16.6251 8.62618H27.1251C27.2395 8.64407 27.3482 8.68802 27.4429 8.75462C27.5375 8.82123 27.6156 8.90871 27.6711 9.0103C27.844 9.28542 27.9534 9.59559 27.9914 9.91828C28.0293 10.241 27.995 10.5681 27.8907 10.8758L25.7356 14.7512H18.0146L15.8595 10.8758C15.7553 10.5681 15.7209 10.241 15.7589 9.91828C15.7969 9.59559 15.9063 9.28542 16.0791 9.0103ZM17.5001 18.2512C17.268 18.2512 17.0455 18.159 16.8814 17.9949C16.7173 17.8308 16.6251 17.6082 16.6251 17.3762C16.6251 17.1441 16.7173 16.9216 16.8814 16.7575C17.0455 16.5934 17.268 16.5012 17.5001 16.5012H26.2501C26.4822 16.5012 26.7047 16.5934 26.8688 16.7575C27.0329 16.9216 27.1251 17.1441 27.1251 17.3762C27.1251 17.6082 27.0329 17.8308 26.8688 17.9949C26.7047 18.159 26.4822 18.2512 26.2501 18.2512H17.5001ZM2.62511 39.2512C2.62327 35.9068 3.49323 32.6198 5.14917 29.7142C6.80511 26.8086 9.18984 24.3849 12.0682 22.682C14.9465 20.9791 18.219 20.0559 21.5629 20.0035C24.9068 19.951 28.2067 20.7711 31.137 22.3829L28.4499 23.2991C28.0619 23.4325 27.7255 23.6841 27.4879 24.0185C27.2503 24.353 27.1235 24.7534 27.1251 25.1637V26.5374C25.4626 25.6721 23.6121 25.2309 21.738 25.2532C19.8639 25.2755 18.0243 25.7605 16.3829 26.6651C14.7414 27.5697 13.3489 28.8659 12.3292 30.4385C11.3094 32.011 10.6941 33.8111 10.5378 35.6788C10.3815 37.5465 10.6891 39.4239 11.4333 41.1441C12.1775 42.8642 13.3352 44.3738 14.8035 45.5387C16.2718 46.7035 18.0051 47.4875 19.8495 47.8209C21.6938 48.1544 23.5919 48.0269 25.3751 47.4499V50.6262C25.3751 50.8582 25.4673 51.0808 25.6314 51.2449C25.7955 51.409 26.018 51.5012 26.2501 51.5012H29.7501C29.9822 51.5012 30.2047 51.409 30.3688 51.2449C30.5329 51.0808 30.6251 50.8582 30.6251 50.6262V43.8791C30.9428 43.4973 31.2351 43.0951 31.5001 42.675V50.6262C31.5001 50.8582 31.5923 51.0808 31.7564 51.2449C31.9205 51.409 32.143 51.5012 32.3751 51.5012H35.8751C36.1072 51.5012 36.3297 51.409 36.4938 51.2449C36.6579 51.0808 36.7501 50.8582 36.7501 50.6262V36.6262C36.7501 36.3941 36.6579 36.1715 36.4938 36.0075C36.3297 35.8434 36.1072 35.7512 35.8751 35.7512H33.2134C33.1028 34.3105 32.7189 32.9041 32.082 31.6072L33.9352 30.4487C35.1551 29.6805 36.3064 28.8087 37.3766 27.8429C37.7975 28.4155 38.1866 29.0108 38.5421 29.6262H38.5001C38.268 29.6262 38.0455 29.7184 37.8814 29.8825C37.7173 30.0466 37.6251 30.2691 37.6251 30.5012V50.305C37.112 51.0334 36.5492 51.7254 35.9407 52.3762H7.81211C4.47408 48.8218 2.61879 44.1272 2.62511 39.2512Z" fill="white"/>
<mask id="path-2-outside-1_300_111" maskUnits="userSpaceOnUse" x="13" y="32" width="17" height="13" fill="black">
<rect fill="white" x="13" y="32" width="17" height="13"/>
<path d="M25.3993 34.4252C25.1819 34.4272 24.9652 34.4447 24.7508 34.4778C24.5364 34.5109 24.3252 34.5615 24.1191 34.6257C23.7072 34.7557 23.3149 34.945 22.9667 35.1929C22.6165 35.4391 22.3072 35.7344 22.0032 36.0325C21.6999 36.3316 21.3971 36.6197 21.067 36.8953C21.7334 37.2834 22.486 37.5071 23.2594 37.5879C24.0322 37.671 24.8228 37.5907 25.5615 37.3603C26.3005 37.1301 26.9876 36.7471 27.5606 36.2436C28.1335 35.7404 28.6056 35.1746 28.898 34.4838C28.3692 34.008 27.7397 33.637 27.0585 33.4031C26.3773 33.1683 25.6449 33.0769 24.9245 33.1246C24.5639 33.1489 24.2072 33.2143 23.8605 33.312C23.5145 33.4119 23.1794 33.5465 22.8632 33.7147C22.7064 33.8001 22.553 33.8915 22.4065 33.9937C22.2603 34.0959 22.1177 34.203 21.9807 34.3176C21.7058 34.5452 21.4472 34.7922 21.1913 35.0427C20.9351 35.2929 20.6806 35.5468 20.4132 35.7895C20.2794 35.9109 20.1427 36.0297 20.0004 36.1425C19.8583 36.2559 19.7118 36.3644 19.5576 36.4632C19.5194 36.4883 19.4811 36.5135 19.4414 36.5363C19.4019 36.5597 19.3631 36.584 19.323 36.6063L19.2018 36.672C19.1617 36.6945 19.1193 36.7128 19.0781 36.7334L19.0158 36.7637C18.9951 36.7734 18.9734 36.7819 18.9524 36.7911C18.9097 36.8088 18.8678 36.8279 18.8248 36.8448C18.738 36.8768 18.6517 36.9102 18.5627 36.9356C18.4749 36.965 18.3839 36.9847 18.2943 37.0081L18.1576 37.035L18.0891 37.0481L18.02 37.0581C17.8361 37.0847 17.6502 37.0969 17.4643 37.0952C17.0927 37.0918 16.7223 37.033 16.3688 36.9236C16.1921 36.8688 16.0198 36.8011 15.8537 36.7214C15.688 36.6409 15.5281 36.5492 15.376 36.4472C14.7692 36.036 14.2882 35.4545 14.0154 34.7894L14 34.7514L14.0341 34.7277C14.5439 34.3727 15.1568 34.1679 15.7793 34.1148C16.4026 34.0617 17.0381 34.1622 17.6126 34.3975C17.8996 34.5158 18.1712 34.6674 18.4239 34.8433C18.676 35.0201 18.9064 35.224 19.1169 35.4445C19.536 35.888 19.8693 36.4015 20.1231 36.9462C20.2509 37.2183 20.358 37.4993 20.4464 37.7855C20.4917 37.9283 20.5294 38.0731 20.5653 38.2182C20.5985 38.3638 20.6296 38.5103 20.6531 38.6577C20.6996 38.9524 20.7358 39.248 20.7628 39.5445C20.7782 39.6924 20.7883 39.8409 20.8007 39.9891C20.8105 40.1376 20.8224 40.2859 20.8301 40.4344C20.8648 41.0281 20.8844 41.6224 20.8906 42.217C20.8977 42.8114 20.8909 43.406 20.8672 44C20.8752 43.703 20.8784 43.4057 20.8784 43.1087C20.8772 42.8116 20.8746 42.5143 20.8678 42.2173C20.8553 41.6233 20.8298 41.0296 20.7892 40.4367C20.78 40.2884 20.7666 40.1405 20.7554 39.9923C20.7411 39.8443 20.7299 39.6964 20.713 39.5488C20.683 39.2535 20.6439 38.9587 20.5946 38.6666C20.5436 38.3747 20.4725 38.0862 20.3829 37.8032C20.2936 37.5202 20.186 37.2426 20.0579 36.9739C19.8037 36.4364 19.471 35.9312 19.0561 35.4973C18.8477 35.2817 18.6205 35.0827 18.3723 34.911C18.1238 34.74 17.8575 34.5934 17.5764 34.4795C17.0138 34.253 16.3949 34.1591 15.7885 34.2142C15.1835 34.2696 14.6082 34.4282 14.1168 34.7724C14.3828 35.417 14.8517 35.9597 15.4409 36.3575C15.5889 36.4564 15.744 36.5449 15.9047 36.6226C16.0658 36.6994 16.233 36.7648 16.4044 36.8176C16.7472 36.923 17.106 36.9793 17.4655 36.9819C17.6452 36.9833 17.8249 36.971 18.0022 36.945L18.0686 36.9353L18.1348 36.9225L18.2667 36.8962C18.3533 36.8733 18.4411 36.8545 18.5259 36.8256C18.6119 36.8008 18.6952 36.7682 18.7792 36.7374C18.8207 36.7211 18.8613 36.7025 18.9025 36.6851C18.923 36.6763 18.9438 36.668 18.9639 36.6583L19.0241 36.6289C19.0639 36.6089 19.1051 36.5909 19.1439 36.5689L19.2614 36.5049C19.3002 36.4829 19.3379 36.4592 19.3764 36.4364C19.415 36.4141 19.4523 36.3895 19.4894 36.365C19.6395 36.2684 19.7827 36.1619 19.9218 36.0505C20.0614 35.9397 20.1961 35.8221 20.328 35.7018C20.5926 35.4616 20.8446 35.2075 21.102 34.957C21.3591 34.7063 21.6207 34.4575 21.9006 34.2267C22.04 34.1108 22.1859 34.0014 22.3357 33.8972C22.4854 33.7929 22.6435 33.699 22.8048 33.6119C23.1289 33.4402 23.4723 33.3031 23.8267 33.2015C24.1817 33.1021 24.547 33.0361 24.9159 33.0118C25.6532 32.9644 26.4008 33.0592 27.0965 33.3003C27.7919 33.5405 28.4339 33.9206 28.9724 34.4072L29 34.4321L28.9858 34.4652C28.9093 34.6409 28.8244 34.8131 28.7298 34.9804C28.6332 35.1466 28.5291 35.3086 28.4149 35.4642C28.2993 35.6187 28.1768 35.7684 28.0454 35.9103C27.9129 36.0514 27.7744 36.1873 27.6276 36.3147C27.0407 36.8245 26.3397 37.2095 25.5879 37.4391C24.8362 37.6687 24.0343 37.7452 23.2514 37.6567C22.4685 37.5702 21.707 37.314 21.0383 36.9145L21.006 36.8953L21.0347 36.8719C21.3645 36.6017 21.6661 36.3004 21.973 36.0037C22.2802 35.7081 22.594 35.4142 22.9492 35.1695C23.3027 34.9233 23.6989 34.7354 24.1144 34.6103C24.3222 34.5483 24.5349 34.5003 24.7499 34.4698C24.9646 34.4395 25.1822 34.4247 25.3993 34.4252Z"/>
</mask>
<path d="M25.3993 34.4252C25.1819 34.4272 24.9652 34.4447 24.7508 34.4778C24.5364 34.5109 24.3252 34.5615 24.1191 34.6257C23.7072 34.7557 23.3149 34.945 22.9667 35.1929C22.6165 35.4391 22.3072 35.7344 22.0032 36.0325C21.6999 36.3316 21.3971 36.6197 21.067 36.8953C21.7334 37.2834 22.486 37.5071 23.2594 37.5879C24.0322 37.671 24.8228 37.5907 25.5615 37.3603C26.3005 37.1301 26.9876 36.7471 27.5606 36.2436C28.1335 35.7404 28.6056 35.1746 28.898 34.4838C28.3692 34.008 27.7397 33.637 27.0585 33.4031C26.3773 33.1683 25.6449 33.0769 24.9245 33.1246C24.5639 33.1489 24.2072 33.2143 23.8605 33.312C23.5145 33.4119 23.1794 33.5465 22.8632 33.7147C22.7064 33.8001 22.553 33.8915 22.4065 33.9937C22.2603 34.0959 22.1177 34.203 21.9807 34.3176C21.7058 34.5452 21.4472 34.7922 21.1913 35.0427C20.9351 35.2929 20.6806 35.5468 20.4132 35.7895C20.2794 35.9109 20.1427 36.0297 20.0004 36.1425C19.8583 36.2559 19.7118 36.3644 19.5576 36.4632C19.5194 36.4883 19.4811 36.5135 19.4414 36.5363C19.4019 36.5597 19.3631 36.584 19.323 36.6063L19.2018 36.672C19.1617 36.6945 19.1193 36.7128 19.0781 36.7334L19.0158 36.7637C18.9951 36.7734 18.9734 36.7819 18.9524 36.7911C18.9097 36.8088 18.8678 36.8279 18.8248 36.8448C18.738 36.8768 18.6517 36.9102 18.5627 36.9356C18.4749 36.965 18.3839 36.9847 18.2943 37.0081L18.1576 37.035L18.0891 37.0481L18.02 37.0581C17.8361 37.0847 17.6502 37.0969 17.4643 37.0952C17.0927 37.0918 16.7223 37.033 16.3688 36.9236C16.1921 36.8688 16.0198 36.8011 15.8537 36.7214C15.688 36.6409 15.5281 36.5492 15.376 36.4472C14.7692 36.036 14.2882 35.4545 14.0154 34.7894L14 34.7514L14.0341 34.7277C14.5439 34.3727 15.1568 34.1679 15.7793 34.1148C16.4026 34.0617 17.0381 34.1622 17.6126 34.3975C17.8996 34.5158 18.1712 34.6674 18.4239 34.8433C18.676 35.0201 18.9064 35.224 19.1169 35.4445C19.536 35.888 19.8693 36.4015 20.1231 36.9462C20.2509 37.2183 20.358 37.4993 20.4464 37.7855C20.4917 37.9283 20.5294 38.0731 20.5653 38.2182C20.5985 38.3638 20.6296 38.5103 20.6531 38.6577C20.6996 38.9524 20.7358 39.248 20.7628 39.5445C20.7782 39.6924 20.7883 39.8409 20.8007 39.9891C20.8105 40.1376 20.8224 40.2859 20.8301 40.4344C20.8648 41.0281 20.8844 41.6224 20.8906 42.217C20.8977 42.8114 20.8909 43.406 20.8672 44C20.8752 43.703 20.8784 43.4057 20.8784 43.1087C20.8772 42.8116 20.8746 42.5143 20.8678 42.2173C20.8553 41.6233 20.8298 41.0296 20.7892 40.4367C20.78 40.2884 20.7666 40.1405 20.7554 39.9923C20.7411 39.8443 20.7299 39.6964 20.713 39.5488C20.683 39.2535 20.6439 38.9587 20.5946 38.6666C20.5436 38.3747 20.4725 38.0862 20.3829 37.8032C20.2936 37.5202 20.186 37.2426 20.0579 36.9739C19.8037 36.4364 19.471 35.9312 19.0561 35.4973C18.8477 35.2817 18.6205 35.0827 18.3723 34.911C18.1238 34.74 17.8575 34.5934 17.5764 34.4795C17.0138 34.253 16.3949 34.1591 15.7885 34.2142C15.1835 34.2696 14.6082 34.4282 14.1168 34.7724C14.3828 35.417 14.8517 35.9597 15.4409 36.3575C15.5889 36.4564 15.744 36.5449 15.9047 36.6226C16.0658 36.6994 16.233 36.7648 16.4044 36.8176C16.7472 36.923 17.106 36.9793 17.4655 36.9819C17.6452 36.9833 17.8249 36.971 18.0022 36.945L18.0686 36.9353L18.1348 36.9225L18.2667 36.8962C18.3533 36.8733 18.4411 36.8545 18.5259 36.8256C18.6119 36.8008 18.6952 36.7682 18.7792 36.7374C18.8207 36.7211 18.8613 36.7025 18.9025 36.6851C18.923 36.6763 18.9438 36.668 18.9639 36.6583L19.0241 36.6289C19.0639 36.6089 19.1051 36.5909 19.1439 36.5689L19.2614 36.5049C19.3002 36.4829 19.3379 36.4592 19.3764 36.4364C19.415 36.4141 19.4523 36.3895 19.4894 36.365C19.6395 36.2684 19.7827 36.1619 19.9218 36.0505C20.0614 35.9397 20.1961 35.8221 20.328 35.7018C20.5926 35.4616 20.8446 35.2075 21.102 34.957C21.3591 34.7063 21.6207 34.4575 21.9006 34.2267C22.04 34.1108 22.1859 34.0014 22.3357 33.8972C22.4854 33.7929 22.6435 33.699 22.8048 33.6119C23.1289 33.4402 23.4723 33.3031 23.8267 33.2015C24.1817 33.1021 24.547 33.0361 24.9159 33.0118C25.6532 32.9644 26.4008 33.0592 27.0965 33.3003C27.7919 33.5405 28.4339 33.9206 28.9724 34.4072L29 34.4321L28.9858 34.4652C28.9093 34.6409 28.8244 34.8131 28.7298 34.9804C28.6332 35.1466 28.5291 35.3086 28.4149 35.4642C28.2993 35.6187 28.1768 35.7684 28.0454 35.9103C27.9129 36.0514 27.7744 36.1873 27.6276 36.3147C27.0407 36.8245 26.3397 37.2095 25.5879 37.4391C24.8362 37.6687 24.0343 37.7452 23.2514 37.6567C22.4685 37.5702 21.707 37.314 21.0383 36.9145L21.006 36.8953L21.0347 36.8719C21.3645 36.6017 21.6661 36.3004 21.973 36.0037C22.2802 35.7081 22.594 35.4142 22.9492 35.1695C23.3027 34.9233 23.6989 34.7354 24.1144 34.6103C24.3222 34.5483 24.5349 34.5003 24.7499 34.4698C24.9646 34.4395 25.1822 34.4247 25.3993 34.4252Z" fill="white"/>
<path d="M25.3993 34.4252C25.1819 34.4272 24.9652 34.4447 24.7508 34.4778C24.5364 34.5109 24.3252 34.5615 24.1191 34.6257C23.7072 34.7557 23.3149 34.945 22.9667 35.1929C22.6165 35.4391 22.3072 35.7344 22.0032 36.0325C21.6999 36.3316 21.3971 36.6197 21.067 36.8953C21.7334 37.2834 22.486 37.5071 23.2594 37.5879C24.0322 37.671 24.8228 37.5907 25.5615 37.3603C26.3005 37.1301 26.9876 36.7471 27.5606 36.2436C28.1335 35.7404 28.6056 35.1746 28.898 34.4838C28.3692 34.008 27.7397 33.637 27.0585 33.4031C26.3773 33.1683 25.6449 33.0769 24.9245 33.1246C24.5639 33.1489 24.2072 33.2143 23.8605 33.312C23.5145 33.4119 23.1794 33.5465 22.8632 33.7147C22.7064 33.8001 22.553 33.8915 22.4065 33.9937C22.2603 34.0959 22.1177 34.203 21.9807 34.3176C21.7058 34.5452 21.4472 34.7922 21.1913 35.0427C20.9351 35.2929 20.6806 35.5468 20.4132 35.7895C20.2794 35.9109 20.1427 36.0297 20.0004 36.1425C19.8583 36.2559 19.7118 36.3644 19.5576 36.4632C19.5194 36.4883 19.4811 36.5135 19.4414 36.5363C19.4019 36.5597 19.3631 36.584 19.323 36.6063L19.2018 36.672C19.1617 36.6945 19.1193 36.7128 19.0781 36.7334L19.0158 36.7637C18.9951 36.7734 18.9734 36.7819 18.9524 36.7911C18.9097 36.8088 18.8678 36.8279 18.8248 36.8448C18.738 36.8768 18.6517 36.9102 18.5627 36.9356C18.4749 36.965 18.3839 36.9847 18.2943 37.0081L18.1576 37.035L18.0891 37.0481L18.02 37.0581C17.8361 37.0847 17.6502 37.0969 17.4643 37.0952C17.0927 37.0918 16.7223 37.033 16.3688 36.9236C16.1921 36.8688 16.0198 36.8011 15.8537 36.7214C15.688 36.6409 15.5281 36.5492 15.376 36.4472C14.7692 36.036 14.2882 35.4545 14.0154 34.7894L14 34.7514L14.0341 34.7277C14.5439 34.3727 15.1568 34.1679 15.7793 34.1148C16.4026 34.0617 17.0381 34.1622 17.6126 34.3975C17.8996 34.5158 18.1712 34.6674 18.4239 34.8433C18.676 35.0201 18.9064 35.224 19.1169 35.4445C19.536 35.888 19.8693 36.4015 20.1231 36.9462C20.2509 37.2183 20.358 37.4993 20.4464 37.7855C20.4917 37.9283 20.5294 38.0731 20.5653 38.2182C20.5985 38.3638 20.6296 38.5103 20.6531 38.6577C20.6996 38.9524 20.7358 39.248 20.7628 39.5445C20.7782 39.6924 20.7883 39.8409 20.8007 39.9891C20.8105 40.1376 20.8224 40.2859 20.8301 40.4344C20.8648 41.0281 20.8844 41.6224 20.8906 42.217C20.8977 42.8114 20.8909 43.406 20.8672 44C20.8752 43.703 20.8784 43.4057 20.8784 43.1087C20.8772 42.8116 20.8746 42.5143 20.8678 42.2173C20.8553 41.6233 20.8298 41.0296 20.7892 40.4367C20.78 40.2884 20.7666 40.1405 20.7554 39.9923C20.7411 39.8443 20.7299 39.6964 20.713 39.5488C20.683 39.2535 20.6439 38.9587 20.5946 38.6666C20.5436 38.3747 20.4725 38.0862 20.3829 37.8032C20.2936 37.5202 20.186 37.2426 20.0579 36.9739C19.8037 36.4364 19.471 35.9312 19.0561 35.4973C18.8477 35.2817 18.6205 35.0827 18.3723 34.911C18.1238 34.74 17.8575 34.5934 17.5764 34.4795C17.0138 34.253 16.3949 34.1591 15.7885 34.2142C15.1835 34.2696 14.6082 34.4282 14.1168 34.7724C14.3828 35.417 14.8517 35.9597 15.4409 36.3575C15.5889 36.4564 15.744 36.5449 15.9047 36.6226C16.0658 36.6994 16.233 36.7648 16.4044 36.8176C16.7472 36.923 17.106 36.9793 17.4655 36.9819C17.6452 36.9833 17.8249 36.971 18.0022 36.945L18.0686 36.9353L18.1348 36.9225L18.2667 36.8962C18.3533 36.8733 18.4411 36.8545 18.5259 36.8256C18.6119 36.8008 18.6952 36.7682 18.7792 36.7374C18.8207 36.7211 18.8613 36.7025 18.9025 36.6851C18.923 36.6763 18.9438 36.668 18.9639 36.6583L19.0241 36.6289C19.0639 36.6089 19.1051 36.5909 19.1439 36.5689L19.2614 36.5049C19.3002 36.4829 19.3379 36.4592 19.3764 36.4364C19.415 36.4141 19.4523 36.3895 19.4894 36.365C19.6395 36.2684 19.7827 36.1619 19.9218 36.0505C20.0614 35.9397 20.1961 35.8221 20.328 35.7018C20.5926 35.4616 20.8446 35.2075 21.102 34.957C21.3591 34.7063 21.6207 34.4575 21.9006 34.2267C22.04 34.1108 22.1859 34.0014 22.3357 33.8972C22.4854 33.7929 22.6435 33.699 22.8048 33.6119C23.1289 33.4402 23.4723 33.3031 23.8267 33.2015C24.1817 33.1021 24.547 33.0361 24.9159 33.0118C25.6532 32.9644 26.4008 33.0592 27.0965 33.3003C27.7919 33.5405 28.4339 33.9206 28.9724 34.4072L29 34.4321L28.9858 34.4652C28.9093 34.6409 28.8244 34.8131 28.7298 34.9804C28.6332 35.1466 28.5291 35.3086 28.4149 35.4642C28.2993 35.6187 28.1768 35.7684 28.0454 35.9103C27.9129 36.0514 27.7744 36.1873 27.6276 36.3147C27.0407 36.8245 26.3397 37.2095 25.5879 37.4391C24.8362 37.6687 24.0343 37.7452 23.2514 37.6567C22.4685 37.5702 21.707 37.314 21.0383 36.9145L21.006 36.8953L21.0347 36.8719C21.3645 36.6017 21.6661 36.3004 21.973 36.0037C22.2802 35.7081 22.594 35.4142 22.9492 35.1695C23.3027 34.9233 23.6989 34.7354 24.1144 34.6103C24.3222 34.5483 24.5349 34.5003 24.7499 34.4698C24.9646 34.4395 25.1822 34.4247 25.3993 34.4252Z" stroke="white" stroke-width="0.68" mask="url(#path-2-outside-1_300_111)"/>
<path d="M44.625 23.5C44.3929 23.5 44.1704 23.5922 44.0063 23.7563C43.8422 23.9204 43.75 24.1429 43.75 24.375V50.625C43.75 50.8571 43.8422 51.0796 44.0063 51.2437C44.1704 51.4078 44.3929 51.5 44.625 51.5H48.125C48.3571 51.5 48.5796 51.4078 48.7437 51.2437C48.9078 51.0796 49 50.8571 49 50.625V24.375C49 24.1429 48.9078 23.9204 48.7437 23.7563C48.5796 23.5922 48.3571 23.5 48.125 23.5H44.625ZM47.25 49.75H45.5V25.25H47.25V49.75Z" fill="white"/>
<path d="M54.25 18.25H50.75C50.5179 18.25 50.2954 18.3422 50.1313 18.5063C49.9672 18.6704 49.875 18.8929 49.875 19.125V50.625C49.875 50.8571 49.9672 51.0796 50.1313 51.2437C50.2954 51.4078 50.5179 51.5 50.75 51.5H54.25C54.4821 51.5 54.7046 51.4078 54.8687 51.2437C55.0328 51.0796 55.125 50.8571 55.125 50.625V19.125C55.125 18.8929 55.0328 18.6704 54.8687 18.5063C54.7046 18.3422 54.4821 18.25 54.25 18.25ZM53.375 49.75H51.625V20H53.375V49.75Z" fill="white"/>
</svg>
