<svg width="56" height="48" viewBox="0 0 56 48" fill="none" xmlns="http://www.w3.org/2000/svg">
<path d="M43.75 38.875C42.3027 38.875 41.125 40.0527 41.125 41.5C41.125 42.9472 42.3027 44.125 43.75 44.125C45.1972 44.125 46.375 42.9472 46.375 41.5C46.375 40.0527 45.1972 38.875 43.75 38.875ZM43.75 42.375C43.267 42.375 42.875 41.983 42.875 41.5C42.875 41.017 43.267 40.625 43.75 40.625C44.233 40.625 44.625 41.017 44.625 41.5C44.625 41.983 44.233 42.375 43.75 42.375Z" fill="white"/>
<path d="M15.75 38.875C14.3027 38.875 13.125 40.0527 13.125 41.5C13.125 42.9472 14.3027 44.125 15.75 44.125C17.1972 44.125 18.375 42.9472 18.375 41.5C18.375 40.0527 17.1972 38.875 15.75 38.875ZM15.75 42.375C15.267 42.375 14.875 41.983 14.875 41.5C14.875 41.017 15.267 40.625 15.75 40.625C16.233 40.625 16.625 41.017 16.625 41.5C16.625 41.983 16.233 42.375 15.75 42.375Z" fill="white"/>
<path d="M52.7065 27.5L51.5392 26.9164L50.3501 19.7816C49.9975 17.6624 48.1819 16.125 46.0346 16.125H36.75C35.3264 16.125 34.0716 16.8189 33.2728 17.875H30.625V9.125H25.375V0.375H13.125V9.125H7.875V17.875H2.625V26.625C1.65987 26.625 0.875 27.4099 0.875 28.375V30.125C0.875 31.0901 1.65987 31.875 2.625 31.875V39.75C2.625 41.1973 3.80275 42.375 5.25 42.375H9.695C10.122 45.3377 12.6709 47.625 15.75 47.625C18.8291 47.625 21.378 45.3377 21.805 42.375H37.695C38.122 45.3377 40.6709 47.625 43.75 47.625C46.8291 47.625 49.378 45.3377 49.805 42.375H52.5C53.9473 42.375 55.125 41.1973 55.125 39.75V31.413C55.125 29.7453 54.1984 28.2472 52.7065 27.5ZM53.375 35.7093L51.625 34.8343V33.625H53.375V35.7093ZM18.375 19.625H20.125V21.375H18.375V19.625ZM21.875 23.125V19.625H23.625V26.625H14.875V19.625H16.625V23.125H21.875ZM32.375 26.625H25.375V19.625H27.125V23.125H32.375V26.625ZM32.375 20.5V21.375H28.875V19.625H32.4634C32.4056 19.9076 32.375 20.2008 32.375 20.5ZM28.875 17.875H25.375H23.625H20.125V10.875H21.875V14.375H27.125V10.875H28.875V17.875ZM23.625 10.875H25.375V12.625H23.625V10.875ZM18.375 2.125H20.125V3.875H18.375V2.125ZM14.875 2.125H16.625V5.625H21.875V2.125H23.625V9.125H20.125H18.375H14.875V2.125ZM13.125 10.875H14.875V12.625H13.125V10.875ZM9.625 10.875H11.375V14.375H16.625V10.875H18.375V17.875H14.875H13.125H9.625V10.875ZM7.875 19.625H9.625V21.375H7.875V19.625ZM4.375 19.625H6.125V23.125H11.375V19.625H13.125V26.625H4.375V19.625ZM2.625 28.375H32.375V30.125H2.625V28.375ZM4.375 35.375H7.62912L7.19162 37.125H4.375V35.375ZM4.375 39.75V38.875H8.55838L9.87088 33.625H4.375V31.875H32.375V40.625H21.805C21.378 37.6623 18.8291 35.375 15.75 35.375C12.6709 35.375 10.122 37.6623 9.695 40.625H5.25C4.767 40.625 4.375 40.233 4.375 39.75ZM15.75 45.875C13.3376 45.875 11.375 43.9124 11.375 41.5C11.375 39.0876 13.3376 37.125 15.75 37.125C18.1624 37.125 20.125 39.0876 20.125 41.5C20.125 43.9124 18.1624 45.875 15.75 45.875ZM42.875 26.625H46.375V28.375H45.5H44.625C43.6599 28.375 42.875 27.5901 42.875 26.625ZM42.875 24.875C41.9099 24.875 41.125 25.6599 41.125 26.625C41.125 27.2655 41.3105 27.8579 41.6115 28.375H37.625V21.375H45.5403L46.1956 24.875H42.875ZM37.625 30.125H44.625H45.5H46.375V35.9744C45.5779 35.5946 44.6898 35.375 43.75 35.375C40.6709 35.375 38.122 37.6623 37.695 40.625H37.625V30.125ZM43.75 45.875C41.3376 45.875 39.375 43.9124 39.375 41.5C39.375 39.0876 41.3376 37.125 43.75 37.125C46.1624 37.125 48.125 39.0876 48.125 41.5C48.125 43.9124 46.1624 45.875 43.75 45.875ZM52.5 40.625H49.805C49.616 39.3107 49.0122 38.1295 48.125 37.2221V25.75L47.2614 21.0548C47.1074 20.227 46.3838 19.625 45.5411 19.625H37.625C36.6599 19.625 35.875 20.4099 35.875 21.375V40.625H34.125V20.5C34.125 19.0527 35.3027 17.875 36.75 17.875H46.0346C47.3235 17.875 48.412 18.7981 48.6237 20.0686L49.9599 28.0836L51.9234 29.0654C52.8185 29.5134 53.375 30.4129 53.375 31.413V31.875H49.875V35.9157L53.375 37.6657V39.75C53.375 40.233 52.983 40.625 52.5 40.625Z" fill="white"/>
</svg>
