<svg width="56" height="56" viewBox="0 0 56 56" fill="none" xmlns="http://www.w3.org/2000/svg">
<path d="M53.2003 20.5338H36.4003V14.0005H38.6869C39.4552 14.0029 40.1465 13.5344 40.4289 12.8199C40.7113 12.1054 40.5271 11.2908 39.9647 10.7674C38.3444 9.26472 35.8272 6.82406 33.6059 4.66712C31.7457 2.86486 30.1376 1.30712 29.2668 0.498856C28.546 -0.166431 27.4332 -0.160314 26.7197 0.512856L16.0443 10.7674C15.483 11.2898 15.2983 12.1023 15.5785 12.816C15.8587 13.5297 16.5468 13.9995 17.3136 14.0005H19.6003V22.6534C11.5299 21.2795 3.64497 25.9253 0.935771 33.6505C-1.77343 41.3757 1.48275 49.9286 8.64349 53.8963C15.8042 57.8639 24.7824 56.0898 29.8959 49.6967C30.4021 50.1476 31.0557 50.3978 31.7336 50.4005H31.9053C31.7948 50.6994 31.7367 51.0151 31.7336 51.3338V53.2005C31.7336 54.7469 32.9872 56.0005 34.5336 56.0005H53.2003C54.7467 56.0005 56.0003 54.7469 56.0003 53.2005V51.3338C56.0003 49.7874 54.7467 48.5338 53.2003 48.5338H53.0285C53.1391 48.2349 53.1972 47.9191 53.2003 47.6005V45.7338C53.1992 45.3766 53.1295 45.023 52.9949 44.6922C54.2131 44.3642 55.0615 43.262 55.0669 42.0005V40.1338C55.0652 39.1749 54.5719 38.2839 53.7603 37.7734C54.0022 37.3561 54.1309 36.8828 54.1336 36.4005V34.5338C54.1319 33.5749 53.6386 32.6839 52.8269 32.1734C53.0688 31.7561 53.1975 31.2828 53.2003 30.8005V28.9338C53.1972 28.6151 53.1391 28.2994 53.0285 28.0005H53.2003C54.7467 28.0005 56.0003 26.7469 56.0003 25.2005V23.3338C56.0003 21.7874 54.7467 20.5338 53.2003 20.5338ZM19.6003 12.1338L17.3248 12.1245L28.0003 1.86712C28.8533 2.65859 30.5305 4.28446 32.3067 6.00646C34.5336 8.16992 37.0601 10.619 38.6869 12.1338H36.4003C35.3693 12.1338 34.5336 12.9695 34.5336 14.0005V20.5338C32.9872 20.5338 31.7336 21.7874 31.7336 23.3338V25.2005C31.7367 25.5191 31.7948 25.8349 31.9053 26.1338H31.7336C30.6055 26.1342 29.5878 26.8115 29.152 27.8521C27.0754 25.5865 24.4173 23.9337 21.4669 23.0734V14.0005C21.4669 12.9695 20.6312 12.1338 19.6003 12.1338ZM51.3336 33.6005C51.8491 33.6005 52.2669 34.0183 52.2669 34.5338V36.4005C52.2669 36.9159 51.8491 37.3338 51.3336 37.3338H33.4901C33.3452 36.06 33.0533 34.8072 32.6203 33.6005H51.3336ZM16.8003 50.4005C10.6147 50.4005 5.60026 45.386 5.60026 39.2005C5.60026 33.0149 10.6147 28.0005 16.8003 28.0005C22.9859 28.0005 28.0003 33.0149 28.0003 39.2005C27.9936 45.3833 22.9831 50.3938 16.8003 50.4005ZM25.344 29.337C23.2168 27.4873 20.5456 26.3797 17.7336 26.1814V24.3147C21.0399 24.5186 24.1831 25.8219 26.6637 28.0173L25.344 29.337ZM15.8669 26.1814C13.0549 26.3797 10.3838 27.4873 8.25653 29.337L6.9368 28.0173C9.41739 25.8219 12.5606 24.5186 15.8669 24.3147V26.1814ZM6.9368 30.6567C5.08709 32.784 3.9795 35.4551 3.7812 38.2671H1.91453C2.11843 34.9608 3.42166 31.8176 5.61706 29.337L6.9368 30.6567ZM3.7812 40.1338C3.9795 42.9458 5.08709 45.617 6.9368 47.7442L5.61706 49.0639C3.42166 46.5833 2.11843 43.4401 1.91453 40.1338H3.7812ZM8.2612 49.0639C10.3872 50.9127 13.0566 52.0202 15.8669 52.2195V54.0862C12.5606 53.8823 9.41739 52.5791 6.9368 50.3837L8.2612 49.0639ZM17.7336 52.2195C20.5456 52.0212 23.2168 50.9136 25.344 49.0639L26.6637 50.3837C24.1831 52.5791 21.0399 53.8823 17.7336 54.0862V52.2195ZM26.6637 47.7442C28.5134 45.617 29.621 42.9458 29.8193 40.1338H31.686C31.4821 43.4401 30.1789 46.5833 27.9835 49.0639L26.6637 47.7442ZM31.686 38.2671H29.8193C29.621 35.4551 28.5134 32.784 26.6637 30.6567L27.9835 29.337C30.1789 31.8176 31.4821 34.9608 31.686 38.2671ZM54.1336 51.3338V53.2005C54.1336 53.7159 53.7157 54.1338 53.2003 54.1338H34.5336C34.0181 54.1338 33.6003 53.7159 33.6003 53.2005V51.3338C33.6003 50.8183 34.0181 50.4005 34.5336 50.4005H53.2003C53.7157 50.4005 54.1336 50.8183 54.1336 51.3338ZM34.5336 48.5338H31.7336C31.4376 48.5339 31.1597 48.3914 30.9869 48.1511C31.6543 47.0985 32.2021 45.9746 32.6203 44.8005H50.4003C50.9157 44.8005 51.3336 45.2183 51.3336 45.7338V47.6005C51.3336 48.1159 50.9157 48.5338 50.4003 48.5338H34.5336ZM53.2003 42.0005C53.2003 42.5159 52.7824 42.9338 52.2669 42.9338H33.1672C33.4511 41.7095 33.5964 40.4572 33.6003 39.2005H52.2669C52.7824 39.2005 53.2003 39.6183 53.2003 40.1338V42.0005ZM51.3336 28.9338V30.8005C51.3336 31.3159 50.9157 31.7338 50.4003 31.7338H31.8269C31.5225 31.1132 31.1797 30.5122 30.8003 29.9343V28.9338C30.8003 28.4183 31.2181 28.0005 31.7336 28.0005H50.4003C50.9157 28.0005 51.3336 28.4183 51.3336 28.9338ZM54.1336 25.2005C54.1336 25.7159 53.7157 26.1338 53.2003 26.1338H34.5336C34.0181 26.1338 33.6003 25.7159 33.6003 25.2005V23.3338C33.6003 22.8183 34.0181 22.4005 34.5336 22.4005H53.2003C53.7157 22.4005 54.1336 22.8183 54.1336 23.3338V25.2005Z" fill="white"/>
<mask id="path-2-outside-1_300_123" maskUnits="userSpaceOnUse" x="7" y="33" width="19" height="15" fill="black">
<rect fill="white" x="7" y="33" width="19" height="15"/>
<path d="M20.9192 35.6844C20.6729 35.6867 20.4272 35.7073 20.1842 35.7465C19.9412 35.7856 19.7019 35.8454 19.4683 35.9213C19.0015 36.0749 18.5569 36.2986 18.1623 36.5916C17.7654 36.8826 17.4148 37.2315 17.0703 37.5839C16.7265 37.9373 16.3834 38.2779 16.0093 38.6036C16.7645 39.0622 17.6175 39.3265 18.494 39.422C19.3699 39.5203 20.2659 39.4254 21.1031 39.153C21.9406 38.881 22.7193 38.4284 23.3686 37.8333C24.018 37.2386 24.553 36.57 24.8844 35.7536C24.2851 35.1912 23.5716 34.7528 22.7996 34.4764C22.0276 34.1989 21.1975 34.0909 20.3811 34.1473C19.9725 34.176 19.5681 34.2533 19.1753 34.3687C18.783 34.4868 18.4033 34.6458 18.045 34.8446C17.8672 34.9455 17.6934 35.0535 17.5274 35.1744C17.3617 35.2952 17.2001 35.4218 17.0448 35.5571C16.7332 35.8261 16.4402 36.1181 16.1501 36.4141C15.8598 36.7097 15.5714 37.0098 15.2682 37.2967C15.1167 37.4401 14.9617 37.5805 14.8004 37.7139C14.6394 37.8479 14.4734 37.9761 14.2986 38.0929C14.2553 38.1226 14.2119 38.1523 14.1669 38.1793C14.1222 38.207 14.0782 38.2357 14.0328 38.262L13.8953 38.3396C13.8499 38.3663 13.8019 38.3879 13.7552 38.4122L13.6846 38.448C13.6611 38.4594 13.6365 38.4696 13.6127 38.4804C13.5643 38.5013 13.5169 38.5239 13.4682 38.5438C13.3697 38.5816 13.2719 38.6211 13.171 38.6511C13.0716 38.6859 12.9684 38.7092 12.8669 38.7369L12.712 38.7686L12.6343 38.7841L12.556 38.7959C12.3476 38.8273 12.1369 38.8418 11.9262 38.8398C11.5051 38.8358 11.0853 38.7662 10.6847 38.637C10.4844 38.5722 10.2891 38.4922 10.1009 38.398C9.91301 38.3028 9.73186 38.1945 9.55945 38.074C8.87181 37.588 8.32668 36.9008 8.01748 36.1147L8 36.0698L8.03865 36.0418C8.61639 35.6223 9.31108 35.3803 10.0165 35.3175C10.723 35.2547 11.4432 35.3735 12.0942 35.6516C12.4196 35.7914 12.7274 35.9706 13.0138 36.1785C13.2994 36.3874 13.5606 36.6284 13.7992 36.889C14.2741 37.4131 14.6519 38.02 14.9395 38.6636C15.0844 38.9853 15.2057 39.3174 15.3059 39.6556C15.3573 39.8244 15.4 39.9955 15.4407 40.1669C15.4783 40.3391 15.5136 40.5122 15.5401 40.6864C15.5929 41.0347 15.6339 41.384 15.6645 41.7344C15.682 41.9092 15.6934 42.0847 15.7075 42.2599C15.7186 42.4354 15.732 42.6106 15.7408 42.7861C15.7801 43.4878 15.8023 44.1902 15.8093 44.8929C15.8174 45.5952 15.8097 46.298 15.7828 47C15.7919 46.649 15.7956 46.2976 15.7956 45.9466C15.7942 45.5956 15.7912 45.2442 15.7835 44.8932C15.7693 44.1912 15.7404 43.4895 15.6944 42.7888C15.684 42.6136 15.6689 42.4388 15.6561 42.2636C15.64 42.0888 15.6272 41.9139 15.608 41.7394C15.5741 41.3904 15.5297 41.0421 15.4739 40.6968C15.4161 40.3519 15.3355 40.011 15.234 39.6765C15.1328 39.342 15.0108 39.014 14.8656 38.6964C14.5776 38.0612 14.2005 37.4641 13.7303 36.9514C13.494 36.6966 13.2366 36.4613 12.9553 36.2585C12.6736 36.0563 12.3718 35.8832 12.0532 35.7485C11.4157 35.4808 10.7142 35.3698 10.0269 35.4349C9.34133 35.5004 8.68932 35.6879 8.13242 36.0946C8.43389 36.8564 8.96524 37.4978 9.63305 37.968C9.80076 38.0848 9.97653 38.1894 10.1587 38.2812C10.3412 38.372 10.5307 38.4493 10.725 38.5118C11.1135 38.6363 11.5202 38.7028 11.9275 38.7058C12.1312 38.7075 12.3349 38.693 12.5358 38.6623L12.6111 38.6508L12.6861 38.6356L12.8356 38.6046C12.9338 38.5776 13.0333 38.5553 13.1294 38.5212C13.2268 38.4918 13.3213 38.4534 13.4164 38.4169C13.4634 38.3977 13.5095 38.3757 13.5562 38.3551C13.5794 38.3447 13.6029 38.3349 13.6258 38.3234L13.694 38.2887C13.739 38.265 13.7858 38.2438 13.8298 38.2178L13.9629 38.1422C14.0069 38.1162 14.0496 38.0882 14.0933 38.0612C14.137 38.0348 14.1793 38.0058 14.2213 37.9768C14.3914 37.8627 14.5537 37.7368 14.7113 37.6052C14.8696 37.4742 15.0222 37.3352 15.1718 37.1931C15.4716 36.9092 15.7572 36.6088 16.049 36.3128C16.3404 36.0165 16.6368 35.7225 16.9541 35.4498C17.112 35.3128 17.2774 35.1835 17.4471 35.0603C17.6168 34.9371 17.796 34.8261 17.9788 34.7231C18.3461 34.5203 18.7353 34.3583 19.1369 34.2381C19.5392 34.1206 19.9533 34.0427 20.3714 34.014C21.2069 33.958 22.0542 34.07 22.8427 34.3549C23.6308 34.6387 24.3584 35.088 24.9687 35.6631L25 35.6925L24.9839 35.7316C24.8972 35.9392 24.801 36.1427 24.6938 36.3405C24.5843 36.5369 24.4663 36.7283 24.3369 36.9123C24.2058 37.0949 24.067 37.2717 23.9181 37.4395C23.7679 37.6062 23.6109 37.7669 23.4446 37.9174C22.7795 38.5199 21.985 38.9748 21.133 39.2462C20.281 39.5176 19.3722 39.608 18.4849 39.5034C17.5977 39.4011 16.7346 39.0984 15.9767 38.6262L15.9401 38.6036L15.9727 38.5759C16.3464 38.2566 16.6882 37.9005 17.0361 37.5498C17.3842 37.2005 17.7398 36.8532 18.1425 36.5639C18.5431 36.273 18.9921 36.0509 19.463 35.9031C19.6985 35.8298 19.9395 35.7731 20.1832 35.737C20.4265 35.7012 20.6732 35.6837 20.9192 35.6844Z"/>
</mask>
<path d="M20.9192 35.6844C20.6729 35.6867 20.4272 35.7073 20.1842 35.7465C19.9412 35.7856 19.7019 35.8454 19.4683 35.9213C19.0015 36.0749 18.5569 36.2986 18.1623 36.5916C17.7654 36.8826 17.4148 37.2315 17.0703 37.5839C16.7265 37.9373 16.3834 38.2779 16.0093 38.6036C16.7645 39.0622 17.6175 39.3265 18.494 39.422C19.3699 39.5203 20.2659 39.4254 21.1031 39.153C21.9406 38.881 22.7193 38.4284 23.3686 37.8333C24.018 37.2386 24.553 36.57 24.8844 35.7536C24.2851 35.1912 23.5716 34.7528 22.7996 34.4764C22.0276 34.1989 21.1975 34.0909 20.3811 34.1473C19.9725 34.176 19.5681 34.2533 19.1753 34.3687C18.783 34.4868 18.4033 34.6458 18.045 34.8446C17.8672 34.9455 17.6934 35.0535 17.5274 35.1744C17.3617 35.2952 17.2001 35.4218 17.0448 35.5571C16.7332 35.8261 16.4402 36.1181 16.1501 36.4141C15.8598 36.7097 15.5714 37.0098 15.2682 37.2967C15.1167 37.4401 14.9617 37.5805 14.8004 37.7139C14.6394 37.8479 14.4734 37.9761 14.2986 38.0929C14.2553 38.1226 14.2119 38.1523 14.1669 38.1793C14.1222 38.207 14.0782 38.2357 14.0328 38.262L13.8953 38.3396C13.8499 38.3663 13.8019 38.3879 13.7552 38.4122L13.6846 38.448C13.6611 38.4594 13.6365 38.4696 13.6127 38.4804C13.5643 38.5013 13.5169 38.5239 13.4682 38.5438C13.3697 38.5816 13.2719 38.6211 13.171 38.6511C13.0716 38.6859 12.9684 38.7092 12.8669 38.7369L12.712 38.7686L12.6343 38.7841L12.556 38.7959C12.3476 38.8273 12.1369 38.8418 11.9262 38.8398C11.5051 38.8358 11.0853 38.7662 10.6847 38.637C10.4844 38.5722 10.2891 38.4922 10.1009 38.398C9.91301 38.3028 9.73186 38.1945 9.55945 38.074C8.87181 37.588 8.32668 36.9008 8.01748 36.1147L8 36.0698L8.03865 36.0418C8.61639 35.6223 9.31108 35.3803 10.0165 35.3175C10.723 35.2547 11.4432 35.3735 12.0942 35.6516C12.4196 35.7914 12.7274 35.9706 13.0138 36.1785C13.2994 36.3874 13.5606 36.6284 13.7992 36.889C14.2741 37.4131 14.6519 38.02 14.9395 38.6636C15.0844 38.9853 15.2057 39.3174 15.3059 39.6556C15.3573 39.8244 15.4 39.9955 15.4407 40.1669C15.4783 40.3391 15.5136 40.5122 15.5401 40.6864C15.5929 41.0347 15.6339 41.384 15.6645 41.7344C15.682 41.9092 15.6934 42.0847 15.7075 42.2599C15.7186 42.4354 15.732 42.6106 15.7408 42.7861C15.7801 43.4878 15.8023 44.1902 15.8093 44.8929C15.8174 45.5952 15.8097 46.298 15.7828 47C15.7919 46.649 15.7956 46.2976 15.7956 45.9466C15.7942 45.5956 15.7912 45.2442 15.7835 44.8932C15.7693 44.1912 15.7404 43.4895 15.6944 42.7888C15.684 42.6136 15.6689 42.4388 15.6561 42.2636C15.64 42.0888 15.6272 41.9139 15.608 41.7394C15.5741 41.3904 15.5297 41.0421 15.4739 40.6968C15.4161 40.3519 15.3355 40.011 15.234 39.6765C15.1328 39.342 15.0108 39.014 14.8656 38.6964C14.5776 38.0612 14.2005 37.4641 13.7303 36.9514C13.494 36.6966 13.2366 36.4613 12.9553 36.2585C12.6736 36.0563 12.3718 35.8832 12.0532 35.7485C11.4157 35.4808 10.7142 35.3698 10.0269 35.4349C9.34133 35.5004 8.68932 35.6879 8.13242 36.0946C8.43389 36.8564 8.96524 37.4978 9.63305 37.968C9.80076 38.0848 9.97653 38.1894 10.1587 38.2812C10.3412 38.372 10.5307 38.4493 10.725 38.5118C11.1135 38.6363 11.5202 38.7028 11.9275 38.7058C12.1312 38.7075 12.3349 38.693 12.5358 38.6623L12.6111 38.6508L12.6861 38.6356L12.8356 38.6046C12.9338 38.5776 13.0333 38.5553 13.1294 38.5212C13.2268 38.4918 13.3213 38.4534 13.4164 38.4169C13.4634 38.3977 13.5095 38.3757 13.5562 38.3551C13.5794 38.3447 13.6029 38.3349 13.6258 38.3234L13.694 38.2887C13.739 38.265 13.7858 38.2438 13.8298 38.2178L13.9629 38.1422C14.0069 38.1162 14.0496 38.0882 14.0933 38.0612C14.137 38.0348 14.1793 38.0058 14.2213 37.9768C14.3914 37.8627 14.5537 37.7368 14.7113 37.6052C14.8696 37.4742 15.0222 37.3352 15.1718 37.1931C15.4716 36.9092 15.7572 36.6088 16.049 36.3128C16.3404 36.0165 16.6368 35.7225 16.9541 35.4498C17.112 35.3128 17.2774 35.1835 17.4471 35.0603C17.6168 34.9371 17.796 34.8261 17.9788 34.7231C18.3461 34.5203 18.7353 34.3583 19.1369 34.2381C19.5392 34.1206 19.9533 34.0427 20.3714 34.014C21.2069 33.958 22.0542 34.07 22.8427 34.3549C23.6308 34.6387 24.3584 35.088 24.9687 35.6631L25 35.6925L24.9839 35.7316C24.8972 35.9392 24.801 36.1427 24.6938 36.3405C24.5843 36.5369 24.4663 36.7283 24.3369 36.9123C24.2058 37.0949 24.067 37.2717 23.9181 37.4395C23.7679 37.6062 23.6109 37.7669 23.4446 37.9174C22.7795 38.5199 21.985 38.9748 21.133 39.2462C20.281 39.5176 19.3722 39.608 18.4849 39.5034C17.5977 39.4011 16.7346 39.0984 15.9767 38.6262L15.9401 38.6036L15.9727 38.5759C16.3464 38.2566 16.6882 37.9005 17.0361 37.5498C17.3842 37.2005 17.7398 36.8532 18.1425 36.5639C18.5431 36.273 18.9921 36.0509 19.463 35.9031C19.6985 35.8298 19.9395 35.7731 20.1832 35.737C20.4265 35.7012 20.6732 35.6837 20.9192 35.6844Z" fill="white"/>
<path d="M20.9192 35.6844C20.6729 35.6867 20.4272 35.7073 20.1842 35.7465C19.9412 35.7856 19.7019 35.8454 19.4683 35.9213C19.0015 36.0749 18.5569 36.2986 18.1623 36.5916C17.7654 36.8826 17.4148 37.2315 17.0703 37.5839C16.7265 37.9373 16.3834 38.2779 16.0093 38.6036C16.7645 39.0622 17.6175 39.3265 18.494 39.422C19.3699 39.5203 20.2659 39.4254 21.1031 39.153C21.9406 38.881 22.7193 38.4284 23.3686 37.8333C24.018 37.2386 24.553 36.57 24.8844 35.7536C24.2851 35.1912 23.5716 34.7528 22.7996 34.4764C22.0276 34.1989 21.1975 34.0909 20.3811 34.1473C19.9725 34.176 19.5681 34.2533 19.1753 34.3687C18.783 34.4868 18.4033 34.6458 18.045 34.8446C17.8672 34.9455 17.6934 35.0535 17.5274 35.1744C17.3617 35.2952 17.2001 35.4218 17.0448 35.5571C16.7332 35.8261 16.4402 36.1181 16.1501 36.4141C15.8598 36.7097 15.5714 37.0098 15.2682 37.2967C15.1167 37.4401 14.9617 37.5805 14.8004 37.7139C14.6394 37.8479 14.4734 37.9761 14.2986 38.0929C14.2553 38.1226 14.2119 38.1523 14.1669 38.1793C14.1222 38.207 14.0782 38.2357 14.0328 38.262L13.8953 38.3396C13.8499 38.3663 13.8019 38.3879 13.7552 38.4122L13.6846 38.448C13.6611 38.4594 13.6365 38.4696 13.6127 38.4804C13.5643 38.5013 13.5169 38.5239 13.4682 38.5438C13.3697 38.5816 13.2719 38.6211 13.171 38.6511C13.0716 38.6859 12.9684 38.7092 12.8669 38.7369L12.712 38.7686L12.6343 38.7841L12.556 38.7959C12.3476 38.8273 12.1369 38.8418 11.9262 38.8398C11.5051 38.8358 11.0853 38.7662 10.6847 38.637C10.4844 38.5722 10.2891 38.4922 10.1009 38.398C9.91301 38.3028 9.73186 38.1945 9.55945 38.074C8.87181 37.588 8.32668 36.9008 8.01748 36.1147L8 36.0698L8.03865 36.0418C8.61639 35.6223 9.31108 35.3803 10.0165 35.3175C10.723 35.2547 11.4432 35.3735 12.0942 35.6516C12.4196 35.7914 12.7274 35.9706 13.0138 36.1785C13.2994 36.3874 13.5606 36.6284 13.7992 36.889C14.2741 37.4131 14.6519 38.02 14.9395 38.6636C15.0844 38.9853 15.2057 39.3174 15.3059 39.6556C15.3573 39.8244 15.4 39.9955 15.4407 40.1669C15.4783 40.3391 15.5136 40.5122 15.5401 40.6864C15.5929 41.0347 15.6339 41.384 15.6645 41.7344C15.682 41.9092 15.6934 42.0847 15.7075 42.2599C15.7186 42.4354 15.732 42.6106 15.7408 42.7861C15.7801 43.4878 15.8023 44.1902 15.8093 44.8929C15.8174 45.5952 15.8097 46.298 15.7828 47C15.7919 46.649 15.7956 46.2976 15.7956 45.9466C15.7942 45.5956 15.7912 45.2442 15.7835 44.8932C15.7693 44.1912 15.7404 43.4895 15.6944 42.7888C15.684 42.6136 15.6689 42.4388 15.6561 42.2636C15.64 42.0888 15.6272 41.9139 15.608 41.7394C15.5741 41.3904 15.5297 41.0421 15.4739 40.6968C15.4161 40.3519 15.3355 40.011 15.234 39.6765C15.1328 39.342 15.0108 39.014 14.8656 38.6964C14.5776 38.0612 14.2005 37.4641 13.7303 36.9514C13.494 36.6966 13.2366 36.4613 12.9553 36.2585C12.6736 36.0563 12.3718 35.8832 12.0532 35.7485C11.4157 35.4808 10.7142 35.3698 10.0269 35.4349C9.34133 35.5004 8.68932 35.6879 8.13242 36.0946C8.43389 36.8564 8.96524 37.4978 9.63305 37.968C9.80076 38.0848 9.97653 38.1894 10.1587 38.2812C10.3412 38.372 10.5307 38.4493 10.725 38.5118C11.1135 38.6363 11.5202 38.7028 11.9275 38.7058C12.1312 38.7075 12.3349 38.693 12.5358 38.6623L12.6111 38.6508L12.6861 38.6356L12.8356 38.6046C12.9338 38.5776 13.0333 38.5553 13.1294 38.5212C13.2268 38.4918 13.3213 38.4534 13.4164 38.4169C13.4634 38.3977 13.5095 38.3757 13.5562 38.3551C13.5794 38.3447 13.6029 38.3349 13.6258 38.3234L13.694 38.2887C13.739 38.265 13.7858 38.2438 13.8298 38.2178L13.9629 38.1422C14.0069 38.1162 14.0496 38.0882 14.0933 38.0612C14.137 38.0348 14.1793 38.0058 14.2213 37.9768C14.3914 37.8627 14.5537 37.7368 14.7113 37.6052C14.8696 37.4742 15.0222 37.3352 15.1718 37.1931C15.4716 36.9092 15.7572 36.6088 16.049 36.3128C16.3404 36.0165 16.6368 35.7225 16.9541 35.4498C17.112 35.3128 17.2774 35.1835 17.4471 35.0603C17.6168 34.9371 17.796 34.8261 17.9788 34.7231C18.3461 34.5203 18.7353 34.3583 19.1369 34.2381C19.5392 34.1206 19.9533 34.0427 20.3714 34.014C21.2069 33.958 22.0542 34.07 22.8427 34.3549C23.6308 34.6387 24.3584 35.088 24.9687 35.6631L25 35.6925L24.9839 35.7316C24.8972 35.9392 24.801 36.1427 24.6938 36.3405C24.5843 36.5369 24.4663 36.7283 24.3369 36.9123C24.2058 37.0949 24.067 37.2717 23.9181 37.4395C23.7679 37.6062 23.6109 37.7669 23.4446 37.9174C22.7795 38.5199 21.985 38.9748 21.133 39.2462C20.281 39.5176 19.3722 39.608 18.4849 39.5034C17.5977 39.4011 16.7346 39.0984 15.9767 38.6262L15.9401 38.6036L15.9727 38.5759C16.3464 38.2566 16.6882 37.9005 17.0361 37.5498C17.3842 37.2005 17.7398 36.8532 18.1425 36.5639C18.5431 36.273 18.9921 36.0509 19.463 35.9031C19.6985 35.8298 19.9395 35.7731 20.1832 35.737C20.4265 35.7012 20.6732 35.6837 20.9192 35.6844Z" stroke="white" stroke-width="0.68" mask="url(#path-2-outside-1_300_123)"/>
</svg>
