<svg width="56" height="56" viewBox="0 0 56 56" fill="none" xmlns="http://www.w3.org/2000/svg">
<path d="M28 0C12.5826 0 0 12.5836 0 28C0 43.4174 12.5836 56 28 56C43.4174 56 56 43.4164 56 28C56 12.5826 43.4164 0 28 0ZM28 52.7188C14.37 52.7188 3.28125 41.63 3.28125 28C3.28125 14.37 14.37 3.28125 28 3.28125C41.63 3.28125 52.7188 14.37 52.7188 28C52.7188 41.63 41.63 52.7188 28 52.7188Z" fill="white"/>
<path d="M28 6.5625C16.2271 6.5625 6.5625 16.2261 6.5625 28C6.5625 39.7729 16.2261 49.4375 28 49.4375C39.7729 49.4375 49.4375 39.7739 49.4375 28C49.4375 16.2271 39.7739 6.5625 28 6.5625ZM28 46.1562C17.9886 46.1562 9.84375 38.0114 9.84375 28C9.84375 17.9886 17.9886 9.84375 28 9.84375C38.0114 9.84375 46.1562 17.9886 46.1562 28C46.1562 38.0114 38.0114 46.1562 28 46.1562Z" fill="white"/>
<mask id="path-3-outside-1_300_144" maskUnits="userSpaceOnUse" x="14" y="19" width="29" height="23" fill="black">
<rect fill="white" x="14" y="19" width="29" height="23"/>
<path d="M35.5188 22.7209C35.1275 22.7247 34.7373 22.758 34.3514 22.8212C33.9654 22.8845 33.5854 22.981 33.2144 23.1036C32.473 23.3517 31.7668 23.7132 31.1401 24.1865C30.5097 24.6564 29.953 25.2202 29.4058 25.7894C28.8598 26.3602 28.3148 26.9104 27.7207 27.4365C28.9201 28.1775 30.2748 28.6044 31.667 28.7587C33.058 28.9173 34.4811 28.7641 35.8107 28.3241C37.1409 27.8847 38.3777 27.1535 39.409 26.1923C40.4403 25.2316 41.2901 24.1516 41.8164 22.8327C40.8646 21.9243 39.7314 21.2161 38.5053 20.7695C37.2792 20.3214 35.9607 20.1469 34.6642 20.238C34.0151 20.2843 33.3729 20.4092 32.7489 20.5956C32.126 20.7864 31.5228 21.0432 30.9538 21.3644C30.6714 21.5274 30.3955 21.7019 30.1318 21.8971C29.8686 22.0923 29.6119 22.2967 29.3653 22.5153C28.8704 22.9499 28.405 23.4215 27.9443 23.8997C27.4831 24.3773 27.0251 24.862 26.5437 25.3254C26.3029 25.5571 26.0569 25.784 25.8006 25.9993C25.545 26.2158 25.2813 26.4229 25.0037 26.6116C24.9348 26.6596 24.866 26.7076 24.7945 26.7512C24.7235 26.7959 24.6535 26.8422 24.5815 26.8848L24.3632 27.0102C24.2911 27.0532 24.2148 27.0881 24.1406 27.1274L24.0285 27.1852C23.9911 27.2037 23.9521 27.2201 23.9142 27.2375C23.8374 27.2713 23.7621 27.3078 23.6847 27.34C23.5283 27.4011 23.373 27.4649 23.2128 27.5134C23.0548 27.5696 22.891 27.6072 22.7298 27.6519L22.4837 27.7031L22.3604 27.7282L22.236 27.7473C21.9051 27.798 21.5704 27.8214 21.2357 27.8182C20.5669 27.8116 19.9002 27.6993 19.2639 27.4905C18.9458 27.3858 18.6356 27.2566 18.3367 27.1045C18.0383 26.9507 17.7506 26.7757 17.4768 26.5811C16.3846 25.7959 15.5188 24.6859 15.0278 23.4161L15 23.3435L15.0614 23.2983C15.979 22.6206 17.0823 22.2296 18.2027 22.1282C19.3247 22.0268 20.4686 22.2187 21.5026 22.668C22.0193 22.8937 22.5082 23.1832 22.963 23.5191C23.4167 23.8566 23.8315 24.2459 24.2105 24.6668C24.9647 25.5135 25.5647 26.4938 26.0216 27.5336C26.2517 28.0532 26.4444 28.5897 26.6035 29.136C26.6851 29.4086 26.7529 29.685 26.8175 29.962C26.8773 30.24 26.9333 30.5197 26.9755 30.8011C27.0593 31.3637 27.1244 31.9281 27.173 32.494C27.2008 32.7764 27.2189 33.0599 27.2413 33.3429C27.2589 33.6264 27.2803 33.9094 27.2942 34.1929C27.3566 35.3264 27.3919 36.461 27.4031 37.5962C27.4159 38.7308 27.4036 39.8659 27.3609 41C27.3753 40.433 27.3812 39.8654 27.3812 39.2984C27.379 38.7313 27.3742 38.1638 27.362 37.5967C27.3395 36.4627 27.2936 35.3291 27.2205 34.1973C27.204 33.9143 27.1799 33.6319 27.1597 33.3489C27.134 33.0665 27.1138 32.7841 27.0833 32.5022C27.0294 31.9384 26.959 31.3757 26.8703 30.818C26.7785 30.2608 26.6504 29.7101 26.4892 29.1698C26.3286 28.6295 26.1348 28.0995 25.9042 27.5865C25.4467 26.5603 24.8478 25.5958 24.1011 24.7677C23.7258 24.356 23.3169 23.976 22.8702 23.6483C22.4228 23.3217 21.9435 23.042 21.4375 22.8245C20.4249 22.3921 19.3109 22.2127 18.2193 22.318C17.1303 22.4237 16.0948 22.7266 15.2103 23.3836C15.6891 24.6142 16.533 25.6504 17.5937 26.4099C17.86 26.5985 18.1392 26.7675 18.4285 26.9158C18.7184 27.0625 19.0194 27.1874 19.3279 27.2882C19.945 27.4894 20.5909 27.5968 21.2378 27.6017C21.5613 27.6044 21.8848 27.581 22.204 27.5314L22.3236 27.5128L22.4426 27.4883L22.6801 27.4382C22.836 27.3945 22.994 27.3586 23.1467 27.3035C23.3015 27.256 23.4514 27.1939 23.6025 27.135C23.6772 27.1039 23.7504 27.0685 23.8246 27.0352C23.8614 27.0183 23.8988 27.0025 23.9351 26.984L24.0434 26.9278C24.1149 26.8897 24.1891 26.8553 24.2591 26.8133L24.4704 26.6912C24.5404 26.6492 24.6082 26.604 24.6776 26.5603C24.7469 26.5178 24.8142 26.4709 24.8809 26.424C25.151 26.2398 25.4088 26.0364 25.6592 25.8238C25.9106 25.6122 26.1529 25.3876 26.3905 25.158C26.8666 24.6995 27.3203 24.2143 27.7837 23.7361C28.2465 23.2574 28.7172 22.7825 29.2211 22.342C29.472 22.1206 29.7346 21.9118 30.0042 21.7128C30.2738 21.5138 30.5583 21.3344 30.8487 21.1681C31.4321 20.8404 32.0502 20.5787 32.6881 20.3846C33.327 20.1949 33.9847 20.0689 34.6487 20.0226C35.9757 19.9321 37.3214 20.1131 38.5736 20.5733C39.8254 21.0318 40.981 21.7575 41.9504 22.6865L42 22.734L41.9744 22.7972C41.8367 23.1325 41.684 23.4613 41.5137 23.7808C41.3397 24.0981 41.1523 24.4073 40.9468 24.7044C40.7387 24.9994 40.5182 25.2851 40.2817 25.556C40.0431 25.8254 39.7939 26.0849 39.5296 26.3281C38.4733 27.3013 37.2114 28.0363 35.8582 28.4746C34.5051 28.913 33.0617 29.0591 31.6525 28.8901C30.2433 28.7249 28.8726 28.2358 27.6689 27.473L27.6107 27.4365L27.6625 27.3918C28.2561 26.876 28.7989 26.3008 29.3514 25.7343C29.9044 25.17 30.4691 24.609 31.1086 24.1417C31.7449 23.6718 32.458 23.313 33.2059 23.0742C33.58 22.9559 33.9628 22.8643 34.3498 22.8059C34.7362 22.7482 35.128 22.7198 35.5188 22.7209Z"/>
</mask>
<path d="M35.5188 22.7209C35.1275 22.7247 34.7373 22.758 34.3514 22.8212C33.9654 22.8845 33.5854 22.981 33.2144 23.1036C32.473 23.3517 31.7668 23.7132 31.1401 24.1865C30.5097 24.6564 29.953 25.2202 29.4058 25.7894C28.8598 26.3602 28.3148 26.9104 27.7207 27.4365C28.9201 28.1775 30.2748 28.6044 31.667 28.7587C33.058 28.9173 34.4811 28.7641 35.8107 28.3241C37.1409 27.8847 38.3777 27.1535 39.409 26.1923C40.4403 25.2316 41.2901 24.1516 41.8164 22.8327C40.8646 21.9243 39.7314 21.2161 38.5053 20.7695C37.2792 20.3214 35.9607 20.1469 34.6642 20.238C34.0151 20.2843 33.3729 20.4092 32.7489 20.5956C32.126 20.7864 31.5228 21.0432 30.9538 21.3644C30.6714 21.5274 30.3955 21.7019 30.1318 21.8971C29.8686 22.0923 29.6119 22.2967 29.3653 22.5153C28.8704 22.9499 28.405 23.4215 27.9443 23.8997C27.4831 24.3773 27.0251 24.862 26.5437 25.3254C26.3029 25.5571 26.0569 25.784 25.8006 25.9993C25.545 26.2158 25.2813 26.4229 25.0037 26.6116C24.9348 26.6596 24.866 26.7076 24.7945 26.7512C24.7235 26.7959 24.6535 26.8422 24.5815 26.8848L24.3632 27.0102C24.2911 27.0532 24.2148 27.0881 24.1406 27.1274L24.0285 27.1852C23.9911 27.2037 23.9521 27.2201 23.9142 27.2375C23.8374 27.2713 23.7621 27.3078 23.6847 27.34C23.5283 27.4011 23.373 27.4649 23.2128 27.5134C23.0548 27.5696 22.891 27.6072 22.7298 27.6519L22.4837 27.7031L22.3604 27.7282L22.236 27.7473C21.9051 27.798 21.5704 27.8214 21.2357 27.8182C20.5669 27.8116 19.9002 27.6993 19.2639 27.4905C18.9458 27.3858 18.6356 27.2566 18.3367 27.1045C18.0383 26.9507 17.7506 26.7757 17.4768 26.5811C16.3846 25.7959 15.5188 24.6859 15.0278 23.4161L15 23.3435L15.0614 23.2983C15.979 22.6206 17.0823 22.2296 18.2027 22.1282C19.3247 22.0268 20.4686 22.2187 21.5026 22.668C22.0193 22.8937 22.5082 23.1832 22.963 23.5191C23.4167 23.8566 23.8315 24.2459 24.2105 24.6668C24.9647 25.5135 25.5647 26.4938 26.0216 27.5336C26.2517 28.0532 26.4444 28.5897 26.6035 29.136C26.6851 29.4086 26.7529 29.685 26.8175 29.962C26.8773 30.24 26.9333 30.5197 26.9755 30.8011C27.0593 31.3637 27.1244 31.9281 27.173 32.494C27.2008 32.7764 27.2189 33.0599 27.2413 33.3429C27.2589 33.6264 27.2803 33.9094 27.2942 34.1929C27.3566 35.3264 27.3919 36.461 27.4031 37.5962C27.4159 38.7308 27.4036 39.8659 27.3609 41C27.3753 40.433 27.3812 39.8654 27.3812 39.2984C27.379 38.7313 27.3742 38.1638 27.362 37.5967C27.3395 36.4627 27.2936 35.3291 27.2205 34.1973C27.204 33.9143 27.1799 33.6319 27.1597 33.3489C27.134 33.0665 27.1138 32.7841 27.0833 32.5022C27.0294 31.9384 26.959 31.3757 26.8703 30.818C26.7785 30.2608 26.6504 29.7101 26.4892 29.1698C26.3286 28.6295 26.1348 28.0995 25.9042 27.5865C25.4467 26.5603 24.8478 25.5958 24.1011 24.7677C23.7258 24.356 23.3169 23.976 22.8702 23.6483C22.4228 23.3217 21.9435 23.042 21.4375 22.8245C20.4249 22.3921 19.3109 22.2127 18.2193 22.318C17.1303 22.4237 16.0948 22.7266 15.2103 23.3836C15.6891 24.6142 16.533 25.6504 17.5937 26.4099C17.86 26.5985 18.1392 26.7675 18.4285 26.9158C18.7184 27.0625 19.0194 27.1874 19.3279 27.2882C19.945 27.4894 20.5909 27.5968 21.2378 27.6017C21.5613 27.6044 21.8848 27.581 22.204 27.5314L22.3236 27.5128L22.4426 27.4883L22.6801 27.4382C22.836 27.3945 22.994 27.3586 23.1467 27.3035C23.3015 27.256 23.4514 27.1939 23.6025 27.135C23.6772 27.1039 23.7504 27.0685 23.8246 27.0352C23.8614 27.0183 23.8988 27.0025 23.9351 26.984L24.0434 26.9278C24.1149 26.8897 24.1891 26.8553 24.2591 26.8133L24.4704 26.6912C24.5404 26.6492 24.6082 26.604 24.6776 26.5603C24.7469 26.5178 24.8142 26.4709 24.8809 26.424C25.151 26.2398 25.4088 26.0364 25.6592 25.8238C25.9106 25.6122 26.1529 25.3876 26.3905 25.158C26.8666 24.6995 27.3203 24.2143 27.7837 23.7361C28.2465 23.2574 28.7172 22.7825 29.2211 22.342C29.472 22.1206 29.7346 21.9118 30.0042 21.7128C30.2738 21.5138 30.5583 21.3344 30.8487 21.1681C31.4321 20.8404 32.0502 20.5787 32.6881 20.3846C33.327 20.1949 33.9847 20.0689 34.6487 20.0226C35.9757 19.9321 37.3214 20.1131 38.5736 20.5733C39.8254 21.0318 40.981 21.7575 41.9504 22.6865L42 22.734L41.9744 22.7972C41.8367 23.1325 41.684 23.4613 41.5137 23.7808C41.3397 24.0981 41.1523 24.4073 40.9468 24.7044C40.7387 24.9994 40.5182 25.2851 40.2817 25.556C40.0431 25.8254 39.7939 26.0849 39.5296 26.3281C38.4733 27.3013 37.2114 28.0363 35.8582 28.4746C34.5051 28.913 33.0617 29.0591 31.6525 28.8901C30.2433 28.7249 28.8726 28.2358 27.6689 27.473L27.6107 27.4365L27.6625 27.3918C28.2561 26.876 28.7989 26.3008 29.3514 25.7343C29.9044 25.17 30.4691 24.609 31.1086 24.1417C31.7449 23.6718 32.458 23.313 33.2059 23.0742C33.58 22.9559 33.9628 22.8643 34.3498 22.8059C34.7362 22.7482 35.128 22.7198 35.5188 22.7209Z" fill="white"/>
<path d="M35.5188 22.7209C35.1275 22.7247 34.7373 22.758 34.3514 22.8212C33.9654 22.8845 33.5854 22.981 33.2144 23.1036C32.473 23.3517 31.7668 23.7132 31.1401 24.1865C30.5097 24.6564 29.953 25.2202 29.4058 25.7894C28.8598 26.3602 28.3148 26.9104 27.7207 27.4365C28.9201 28.1775 30.2748 28.6044 31.667 28.7587C33.058 28.9173 34.4811 28.7641 35.8107 28.3241C37.1409 27.8847 38.3777 27.1535 39.409 26.1923C40.4403 25.2316 41.2901 24.1516 41.8164 22.8327C40.8646 21.9243 39.7314 21.2161 38.5053 20.7695C37.2792 20.3214 35.9607 20.1469 34.6642 20.238C34.0151 20.2843 33.3729 20.4092 32.7489 20.5956C32.126 20.7864 31.5228 21.0432 30.9538 21.3644C30.6714 21.5274 30.3955 21.7019 30.1318 21.8971C29.8686 22.0923 29.6119 22.2967 29.3653 22.5153C28.8704 22.9499 28.405 23.4215 27.9443 23.8997C27.4831 24.3773 27.0251 24.862 26.5437 25.3254C26.3029 25.5571 26.0569 25.784 25.8006 25.9993C25.545 26.2158 25.2813 26.4229 25.0037 26.6116C24.9348 26.6596 24.866 26.7076 24.7945 26.7512C24.7235 26.7959 24.6535 26.8422 24.5815 26.8848L24.3632 27.0102C24.2911 27.0532 24.2148 27.0881 24.1406 27.1274L24.0285 27.1852C23.9911 27.2037 23.9521 27.2201 23.9142 27.2375C23.8374 27.2713 23.7621 27.3078 23.6847 27.34C23.5283 27.4011 23.373 27.4649 23.2128 27.5134C23.0548 27.5696 22.891 27.6072 22.7298 27.6519L22.4837 27.7031L22.3604 27.7282L22.236 27.7473C21.9051 27.798 21.5704 27.8214 21.2357 27.8182C20.5669 27.8116 19.9002 27.6993 19.2639 27.4905C18.9458 27.3858 18.6356 27.2566 18.3367 27.1045C18.0383 26.9507 17.7506 26.7757 17.4768 26.5811C16.3846 25.7959 15.5188 24.6859 15.0278 23.4161L15 23.3435L15.0614 23.2983C15.979 22.6206 17.0823 22.2296 18.2027 22.1282C19.3247 22.0268 20.4686 22.2187 21.5026 22.668C22.0193 22.8937 22.5082 23.1832 22.963 23.5191C23.4167 23.8566 23.8315 24.2459 24.2105 24.6668C24.9647 25.5135 25.5647 26.4938 26.0216 27.5336C26.2517 28.0532 26.4444 28.5897 26.6035 29.136C26.6851 29.4086 26.7529 29.685 26.8175 29.962C26.8773 30.24 26.9333 30.5197 26.9755 30.8011C27.0593 31.3637 27.1244 31.9281 27.173 32.494C27.2008 32.7764 27.2189 33.0599 27.2413 33.3429C27.2589 33.6264 27.2803 33.9094 27.2942 34.1929C27.3566 35.3264 27.3919 36.461 27.4031 37.5962C27.4159 38.7308 27.4036 39.8659 27.3609 41C27.3753 40.433 27.3812 39.8654 27.3812 39.2984C27.379 38.7313 27.3742 38.1638 27.362 37.5967C27.3395 36.4627 27.2936 35.3291 27.2205 34.1973C27.204 33.9143 27.1799 33.6319 27.1597 33.3489C27.134 33.0665 27.1138 32.7841 27.0833 32.5022C27.0294 31.9384 26.959 31.3757 26.8703 30.818C26.7785 30.2608 26.6504 29.7101 26.4892 29.1698C26.3286 28.6295 26.1348 28.0995 25.9042 27.5865C25.4467 26.5603 24.8478 25.5958 24.1011 24.7677C23.7258 24.356 23.3169 23.976 22.8702 23.6483C22.4228 23.3217 21.9435 23.042 21.4375 22.8245C20.4249 22.3921 19.3109 22.2127 18.2193 22.318C17.1303 22.4237 16.0948 22.7266 15.2103 23.3836C15.6891 24.6142 16.533 25.6504 17.5937 26.4099C17.86 26.5985 18.1392 26.7675 18.4285 26.9158C18.7184 27.0625 19.0194 27.1874 19.3279 27.2882C19.945 27.4894 20.5909 27.5968 21.2378 27.6017C21.5613 27.6044 21.8848 27.581 22.204 27.5314L22.3236 27.5128L22.4426 27.4883L22.6801 27.4382C22.836 27.3945 22.994 27.3586 23.1467 27.3035C23.3015 27.256 23.4514 27.1939 23.6025 27.135C23.6772 27.1039 23.7504 27.0685 23.8246 27.0352C23.8614 27.0183 23.8988 27.0025 23.9351 26.984L24.0434 26.9278C24.1149 26.8897 24.1891 26.8553 24.2591 26.8133L24.4704 26.6912C24.5404 26.6492 24.6082 26.604 24.6776 26.5603C24.7469 26.5178 24.8142 26.4709 24.8809 26.424C25.151 26.2398 25.4088 26.0364 25.6592 25.8238C25.9106 25.6122 26.1529 25.3876 26.3905 25.158C26.8666 24.6995 27.3203 24.2143 27.7837 23.7361C28.2465 23.2574 28.7172 22.7825 29.2211 22.342C29.472 22.1206 29.7346 21.9118 30.0042 21.7128C30.2738 21.5138 30.5583 21.3344 30.8487 21.1681C31.4321 20.8404 32.0502 20.5787 32.6881 20.3846C33.327 20.1949 33.9847 20.0689 34.6487 20.0226C35.9757 19.9321 37.3214 20.1131 38.5736 20.5733C39.8254 21.0318 40.981 21.7575 41.9504 22.6865L42 22.734L41.9744 22.7972C41.8367 23.1325 41.684 23.4613 41.5137 23.7808C41.3397 24.0981 41.1523 24.4073 40.9468 24.7044C40.7387 24.9994 40.5182 25.2851 40.2817 25.556C40.0431 25.8254 39.7939 26.0849 39.5296 26.3281C38.4733 27.3013 37.2114 28.0363 35.8582 28.4746C34.5051 28.913 33.0617 29.0591 31.6525 28.8901C30.2433 28.7249 28.8726 28.2358 27.6689 27.473L27.6107 27.4365L27.6625 27.3918C28.2561 26.876 28.7989 26.3008 29.3514 25.7343C29.9044 25.17 30.4691 24.609 31.1086 24.1417C31.7449 23.6718 32.458 23.313 33.2059 23.0742C33.58 22.9559 33.9628 22.8643 34.3498 22.8059C34.7362 22.7482 35.128 22.7198 35.5188 22.7209Z" stroke="white" stroke-width="0.76" mask="url(#path-3-outside-1_300_144)"/>
</svg>
