<svg width="356" height="92" viewBox="0 0 356 92" fill="none" xmlns="http://www.w3.org/2000/svg">
<path d="M44.21 21.0508H63.8895C67.638 21.0508 70.4494 21.9822 72.5319 23.5346C74.8226 25.3975 76.0721 28.0883 76.0721 31.4C76.0721 35.2293 74.5103 37.6096 71.3865 39.0585V39.2655C75.5515 40.6109 77.9464 44.3366 77.9464 48.7868C77.9464 53.03 76.2804 56.3417 73.5731 58.4116C71.2824 60.0675 68.3669 60.7919 64.4102 60.7919H44.21V21.0508ZM61.9112 36.5747C63.9937 36.5747 65.5555 35.4362 65.5555 33.0559C65.5555 30.7791 63.9937 29.6407 61.807 29.6407H55.0389V36.4712H61.9112V36.5747ZM62.8483 51.9951C65.2431 51.9951 67.0133 50.5462 67.0133 47.9588C67.0133 45.1645 65.139 43.9226 62.8483 43.9226H55.1431V52.0985H62.8483V51.9951ZM79.7165 21.0508H90.0248V60.8954H79.7165V21.0508ZM92.1073 46.7169C92.1073 37.7131 97.9383 31.7105 106.997 31.7105C116.056 31.7105 121.783 37.8166 121.783 46.7169C121.783 55.7208 116.056 61.7234 106.997 61.7234C97.9383 61.7234 92.1073 55.7208 92.1073 46.7169ZM111.475 46.7169C111.475 41.7493 109.913 38.6445 106.789 38.6445C103.665 38.6445 102.207 41.7493 102.207 46.7169C102.207 51.6846 103.665 54.8928 106.789 54.8928C109.913 54.7894 111.475 51.6846 111.475 46.7169V46.7169ZM122.928 46.7169C122.928 37.7131 128.759 31.7105 137.818 31.7105C146.877 31.7105 152.5 37.7131 152.5 46.7169C152.5 55.7208 146.773 61.7234 137.714 61.7234C128.759 61.7234 122.928 55.7208 122.928 46.7169V46.7169ZM142.295 46.7169C142.295 41.7493 140.734 38.6445 137.61 38.6445C134.486 38.6445 133.028 41.7493 133.028 46.7169C133.028 51.6846 134.486 54.8928 137.61 54.8928C140.734 54.7894 142.295 51.6846 142.295 46.7169V46.7169ZM154.582 32.435H164.162V36.6782H164.37C166.244 33.3664 168.847 31.607 173.012 31.607C176.657 31.607 179.364 33.3664 180.717 36.4712H180.926C183.216 32.7454 186.236 31.607 189.776 31.607C196.44 31.607 199.252 36.4712 199.252 42.9912V60.7919H189.256V44.7506C189.256 41.8528 188.319 39.9899 185.82 39.9899C183.321 39.9899 182.071 42.2668 182.071 45.3715V60.7919H172.075V44.7506C172.075 41.8528 171.138 39.9899 168.639 39.9899C166.14 39.9899 164.891 42.2668 164.891 45.3715V60.7919H154.582V32.435ZM211.851 57.0662H211.747V60.7919H202.167V21.0508H212.163V35.3328H212.371C214.246 32.8489 216.849 31.5035 220.493 31.5035C227.678 31.5035 231.843 37.9201 231.843 46.5099C231.843 56.1348 227.365 61.7234 219.868 61.7234C216.745 61.7234 213.517 60.2745 211.851 57.0662V57.0662ZM221.534 46.4065C221.534 41.8528 219.868 38.8515 216.849 38.8515C213.725 38.8515 211.851 41.8528 211.851 46.4065C211.851 50.9601 213.829 53.9614 216.849 53.9614C219.868 53.9614 221.534 51.0636 221.534 46.4065ZM232.988 46.6134C232.988 37.7131 238.923 31.607 247.461 31.607C251.731 31.607 254.958 32.9524 257.457 35.3328C260.789 38.541 262.247 43.5087 262.143 49.3042H242.984C243.401 52.823 245.067 54.6859 248.086 54.6859C249.856 54.6859 251.418 53.8579 252.043 51.9951H261.727C260.061 58.5151 254.958 61.7234 247.774 61.7234C238.923 61.6199 232.988 55.6173 232.988 46.6134V46.6134ZM242.984 43.6122H252.147C251.939 40.1969 250.065 38.4375 247.67 38.4375C244.858 38.334 243.296 40.3004 242.984 43.6122ZM273.493 37.2991H273.701C275.783 33.3664 278.491 31.814 281.927 31.814C282.76 31.814 283.28 31.9175 283.593 32.1245V40.8179H283.384C277.449 39.7829 274.013 42.5772 274.013 48.9938V60.8954H263.913V32.435H273.493V37.2991ZM284.634 60.8954H294.318C294.734 62.1373 295.984 63.2757 298.378 63.2757C301.606 63.2757 302.752 61.3094 302.752 58.3081V56.2382H302.543C300.982 58.1011 298.795 59.4465 295.671 59.4465C289.528 59.4465 284.113 54.8928 284.113 45.9925C284.113 37.8166 288.487 31.5035 295.151 31.5035C299.003 31.5035 301.294 33.0559 302.856 35.4362H303.064V32.3315H312.643V56.9627C312.643 61.5164 311.082 65.0351 308.687 67.105C306.188 69.2783 302.648 70.2097 298.587 70.2097C290.881 70.3132 285.571 67.2085 284.634 60.8954V60.8954ZM303.168 45.5785C303.168 42.0598 301.502 39.162 298.587 39.162C295.775 39.162 294.005 41.6458 294.005 45.5785C294.005 49.4077 295.775 52.0985 298.587 52.0985C301.398 52.0985 303.168 49.3042 303.168 45.5785Z" fill="#BFBDB8"/>
</svg>
