<svg width="357" height="92" viewBox="0 0 357 92" fill="none" xmlns="http://www.w3.org/2000/svg">
<path d="M72.3493 61.7665L59.8354 67.1029V66.5632C57.3371 67.1484 54.7904 67.5116 52.226 67.6486C40.4207 67.5516 31.1108 61.4391 30.9568 54.2532V51.5911C34.8138 57.1093 42.7189 60.8508 52.226 60.6871C55.3448 60.7881 58.4611 60.4221 61.4682 59.6017L62.5711 56.9395C59.2165 57.9796 55.7244 58.5272 52.2076 58.5647C40.4022 58.5647 31.0923 52.5007 30.9383 45.1693V43.0226C34.7953 48.1406 42.7005 51.8397 52.2076 51.5911C56.3293 51.8021 60.4439 51.0607 64.2223 49.4262L64.7707 46.7641C60.8986 48.6695 56.6015 49.585 52.2753 49.4262C40.4639 49.5718 31.1539 43.5138 31.0061 36.0247V33.872C34.8631 39.081 42.7682 42.8225 52.2753 42.968C57.4039 42.8296 62.4341 41.5505 66.9888 39.2265L67.5372 36.0247C63.7356 38.7838 58.178 40.6091 52.2753 40.8759C40.4639 40.6334 31.1539 34.5208 31.0061 26.9287C31.1108 19.6761 40.47 13.6181 52.2753 13.515C59.2809 13.6181 65.8305 16.0316 69.6875 19.9672L70.088 20.6099H72.8422L72.4417 19.9672C68.5908 14.8006 60.8397 11.3987 52.2753 11.3987C39.1638 11.3502 28.751 18.3905 28.751 26.868V54.7626C29.2008 63.0339 39.361 69.7832 52.1644 69.7832C60.6364 69.8135 68.2951 66.5146 72.3493 61.7665Z" fill="#BFBDB8"/>
<path d="M67.2411 80.6026L71.6465 62.1801L58.9848 67.6013L66.6927 35.6924H51.9053L55.7562 19.9805H103.051L99.1696 35.6924H83.766L80.4574 44.3639L97.5245 37.3175L67.2411 80.6026ZM74.949 58.4385L72.7494 69.275L90.9133 42.2355L76.0519 48.7361L82.657 33.576H97.5184L100.273 22.1999H57.3335L54.5793 33.5639H69.4469L62.2873 63.8537L74.949 58.4385Z" fill="#BFBDB8"/>
<path d="M134.4 30.5123V30.5608C134.46 31.3094 134.348 32.0616 134.07 32.761C133.793 33.4605 133.358 34.089 132.798 34.5995C131.702 35.5819 130.198 36.073 128.245 36.073C127.365 36.1047 126.487 35.9549 125.669 35.6332C124.851 35.3116 124.11 34.8252 123.495 34.2053C122.883 33.5543 122.408 32.7904 122.098 31.9577C121.788 31.1249 121.649 30.24 121.689 29.3541V26.1765C121.616 24.3981 122.243 22.6604 123.439 21.3253C124.039 20.7095 124.764 20.2245 125.566 19.9017C126.368 19.579 127.231 19.4256 128.097 19.4515C129.787 19.3621 131.455 19.8696 132.798 20.8826C133.374 21.3827 133.823 22.0082 134.11 22.7094C134.397 23.4106 134.513 24.168 134.45 24.9213V24.9698H131.252C131.322 24.1417 131.061 23.3193 130.525 22.6776C129.87 22.1348 129.024 21.8688 128.171 21.9378C127.713 21.9249 127.259 22.03 126.855 22.2427C126.451 22.4554 126.11 22.7684 125.867 23.1506C125.271 24.0502 124.974 25.1097 125.016 26.1826V29.4329C124.983 30.5048 125.28 31.5616 125.867 32.4649C126.426 33.1303 127.23 33.5504 128.103 33.6334C128.976 33.7164 129.847 33.4554 130.525 32.9076C131.075 32.2653 131.346 31.4348 131.276 30.5972H134.425V30.5487L134.4 30.5123ZM152.521 29.2267C152.574 31.0533 151.889 32.826 150.617 34.1568C149.976 34.7963 149.207 35.297 148.358 35.627C147.509 35.957 146.6 36.1089 145.688 36.073C144.777 36.1044 143.869 35.9505 143.02 35.6208C142.172 35.291 141.402 34.7927 140.759 34.1568C139.487 32.826 138.802 31.0533 138.855 29.2267V26.3221C138.81 24.4987 139.493 22.7306 140.759 21.3981C141.395 20.7491 142.163 20.2384 143.011 19.899C143.86 19.5595 144.772 19.3988 145.688 19.4273C146.605 19.3899 147.52 19.5465 148.37 19.8865C149.22 20.2265 149.986 20.7419 150.617 21.3981C151.257 22.0491 151.754 22.8214 152.081 23.668C152.407 24.5145 152.555 25.4175 152.515 26.3221L152.57 29.2267H152.521ZM149.212 26.2736C149.267 25.1622 148.932 24.066 148.264 23.1688C147.95 22.7758 147.547 22.4612 147.086 22.2505C146.626 22.0398 146.122 21.9389 145.614 21.956C145.111 21.9282 144.61 22.0246 144.154 22.2364C143.699 22.4483 143.305 22.7688 143.008 23.1688C142.356 24.074 142.022 25.1644 142.059 26.2736V29.1782C142.007 30.3044 142.341 31.4151 143.008 32.3315C143.312 32.7237 143.708 33.0385 144.161 33.2495C144.615 33.4604 145.113 33.5616 145.614 33.5443C146.123 33.5738 146.632 33.4784 147.094 33.2667C147.557 33.0551 147.958 32.7337 148.264 32.3315C148.94 31.4196 149.275 30.3056 149.212 29.1782V26.2736ZM161.024 35.8305H157.721V19.6759H161.024V35.8305ZM179.995 35.8305H176.692L170.081 24.9455H170.032V35.8305H166.729V19.6759H170.032L176.637 30.5912H176.692V19.6759H179.995V35.8305ZM196.557 22.1864H191.856V35.8305H188.553V22.1864H183.944V19.6759H196.557V22.1864ZM210.167 28.7356H204.068V33.3685H211.32V35.8305H200.814V19.6759H211.32V22.1864H204.117V26.2251H210.223V28.7356H210.167ZM219.33 33.3685H226.686V35.8305H216.027V19.6759H219.33V33.3685ZM240.697 28.7356H234.591V33.3685H241.85V35.8305H231.338V19.6759H241.85V22.1864H234.653V26.2251H240.759V28.7356H240.697ZM259.182 33.6596C258.564 34.4051 257.777 34.9972 256.883 35.3878C255.656 35.9251 254.32 36.1782 252.977 36.1276C252.08 36.175 251.183 36.0371 250.344 35.7229C249.504 35.4087 248.741 34.9251 248.102 34.3031C247.464 33.6812 246.965 32.9347 246.637 32.1116C246.31 31.2885 246.16 30.4071 246.2 29.5239V26.128C246.159 25.2495 246.302 24.3721 246.62 23.5501C246.938 22.7282 247.424 21.9792 248.048 21.3496C248.658 20.7331 249.391 20.2481 250.201 19.9255C251.012 19.6029 251.882 19.4498 252.755 19.4758C254.752 19.4758 256.304 19.967 257.358 20.9069C257.889 21.3735 258.304 21.9529 258.573 22.6012C258.842 23.2495 258.958 23.9496 258.911 24.6484V24.6969H255.83C255.848 24.3279 255.791 23.9591 255.662 23.6122C255.533 23.2653 255.334 22.9475 255.078 22.6776C254.78 22.4171 254.431 22.2175 254.054 22.0905C253.676 21.9635 253.277 21.9116 252.879 21.9378C252.407 21.9285 251.939 22.0259 251.512 22.2225C251.085 22.4191 250.709 22.7097 250.414 23.0718C249.79 23.9307 249.473 24.9696 249.514 26.0249V29.4269C249.458 30.5066 249.795 31.5708 250.463 32.4286C250.767 32.8024 251.157 33.1 251.6 33.2971C252.044 33.4942 252.528 33.5852 253.014 33.5625C253.639 33.5773 254.263 33.4954 254.863 33.32C255.255 33.2013 255.614 32.9936 255.91 32.7136V29.5603H252.761V27.3105H259.212V33.6596H259.182ZM267.691 29.3783V35.8305H264.388V19.6759H270.094C271.667 19.5953 273.222 20.0468 274.499 20.9554C275.022 21.377 275.439 21.9125 275.716 22.5198C275.993 23.127 276.123 23.7893 276.095 24.4544C276.107 25.219 275.874 25.968 275.429 26.595C274.912 27.2472 274.239 27.7637 273.47 28.0988C274.323 28.3069 275.07 28.8134 275.571 29.5239C276.015 30.2696 276.241 31.1216 276.224 31.9859V33.1987C276.221 33.6825 276.287 34.1644 276.421 34.6298C276.508 35.0488 276.741 35.4245 277.081 35.691V35.9396H273.68C273.332 35.6221 273.113 35.1912 273.063 34.7268C272.968 34.2065 272.918 33.679 272.916 33.1502V32.0526C272.956 31.7124 272.919 31.3677 272.808 31.0432C272.696 30.7187 272.513 30.4226 272.272 30.1761C272.03 29.9296 271.736 29.7389 271.41 29.6178C271.085 29.4966 270.736 29.448 270.389 29.4754H267.684V29.3783H267.691ZM267.691 26.9164H270.044C270.78 26.9656 271.509 26.7501 272.096 26.3099C272.335 26.0923 272.522 25.8247 272.643 25.5266C272.763 25.2286 272.814 24.9078 272.792 24.5878C272.804 24.2607 272.748 23.9347 272.629 23.6293C272.509 23.324 272.328 23.0456 272.096 22.811C271.823 22.5777 271.505 22.401 271.161 22.2916C270.817 22.1822 270.454 22.1423 270.094 22.1743H267.691V26.9042V26.9164ZM290.063 32.374H284.758L283.655 35.8729H280.205L285.75 19.7183H289.102L294.61 35.8729H291.153L290.063 32.374ZM285.559 29.815H289.256L287.45 24.1026H287.401L285.559 29.815ZM301.924 29.9605V35.8244H298.621V19.6759H304.893C306.506 19.5936 308.093 20.1012 309.348 21.1009C309.882 21.5676 310.302 22.1458 310.58 22.7932C310.857 23.4405 310.983 24.1407 310.95 24.8425C310.972 25.5436 310.84 26.2411 310.563 26.8877C310.287 27.5343 309.872 28.1149 309.348 28.59C308.093 29.5898 306.506 30.0973 304.893 30.0151H301.893L301.924 29.9605ZM301.924 27.4985H304.893C305.276 27.5208 305.66 27.4668 306.021 27.3397C306.382 27.2125 306.713 27.0149 306.994 26.7587C307.458 26.2448 307.709 25.5782 307.697 24.891C307.725 24.1832 307.478 23.4914 307.007 22.9565C306.727 22.6945 306.394 22.4946 306.03 22.3701C305.665 22.2456 305.278 22.1995 304.893 22.2349H301.893L301.924 27.4985ZM329.034 35.8244H325.731V29.154H319.015V35.8244H315.713V19.6759H319.015V26.595H325.725V19.6759H329.028L329.034 35.8244Z" fill="#BFBDB8"/>
<path d="M127.697 62.2271H125.645V51.5908H121.948V49.8686H131.406V51.5908H127.709L127.697 62.2271ZM141.462 62.2271H139.41V56.4663C139.46 55.8884 139.298 55.3118 138.954 54.8411C138.778 54.6525 138.56 54.5058 138.318 54.4123C138.075 54.3188 137.815 54.2809 137.555 54.3014C137.21 54.2733 136.863 54.3251 136.542 54.4525C136.222 54.5799 135.935 54.7794 135.707 55.0352C135.232 55.787 135.016 56.6695 135.091 57.5518V62.1786H133.088V49.0318H135.091V52.3791C135.091 52.9188 135.041 53.4646 134.992 54.1013H135.14C135.409 53.6504 135.81 53.2908 136.292 53.0704C136.819 52.8072 137.402 52.6721 137.993 52.6763C140.297 52.6763 141.449 53.8042 141.449 56.1207L141.462 62.2271ZM148.393 62.3727C147.758 62.41 147.122 62.3153 146.527 62.0949C145.931 61.8745 145.389 61.5331 144.937 61.0932C144.504 60.6205 144.172 60.0674 143.961 59.4665C143.749 58.8655 143.662 58.2289 143.704 57.5942C143.638 56.2983 144.047 55.0221 144.856 53.9982C145.254 53.5528 145.748 53.2018 146.303 52.9718C146.858 52.7417 147.459 52.6386 148.06 52.6702C148.605 52.6443 149.149 52.7313 149.658 52.9256C150.166 53.1199 150.627 53.4172 151.012 53.7981C151.401 54.2166 151.701 54.7087 151.891 55.2445C152.082 55.7803 152.16 56.3487 152.121 56.915V58.0005H145.762C145.763 58.7579 146.041 59.4895 146.545 60.0623C146.807 60.3177 147.12 60.5156 147.465 60.6431C147.811 60.7706 148.179 60.8248 148.547 60.8021C149.069 60.8073 149.589 60.7564 150.1 60.6505C150.635 60.531 151.154 60.3499 151.646 60.1108V61.7663C151.173 61.9975 150.669 62.1628 150.149 62.2575C149.57 62.3599 148.981 62.3985 148.393 62.3727ZM148.042 54.1923C147.755 54.182 147.468 54.2307 147.201 54.335C146.934 54.4394 146.691 54.5973 146.489 54.7987C146.061 55.2952 145.813 55.9185 145.787 56.5694H150.1C150.14 55.9324 149.943 55.3027 149.545 54.7987C149.359 54.5981 149.129 54.4403 148.874 54.3365C148.618 54.2328 148.343 54.1856 148.067 54.1984L148.042 54.1923ZM163.704 54.3439H161.4V62.2271H159.348V54.3439H157.802V53.41L159.348 52.8036V52.1972C159.274 51.3046 159.562 50.4195 160.149 49.7352C160.476 49.4529 160.857 49.2378 161.27 49.1024C161.682 48.9671 162.118 48.9142 162.552 48.9469C163.267 48.9428 163.978 49.0597 164.653 49.2926L164.129 50.851C163.66 50.6974 163.17 50.6136 162.675 50.6024C162.489 50.5896 162.303 50.6184 162.13 50.6866C161.957 50.7549 161.802 50.8609 161.677 50.9965C161.457 51.3624 161.352 51.7846 161.375 52.2094V52.8158H163.68L163.729 54.3439H163.704ZM172.059 62.2271L171.763 61.0143H171.659C171.36 61.4597 170.945 61.8179 170.457 62.0513C169.912 62.3129 169.314 62.4478 168.707 62.4454C167.764 62.504 166.833 62.2045 166.107 61.6086C165.491 61.0628 165.257 60.1775 165.257 59.0435V52.8703H167.309V58.6312C167.267 59.2074 167.426 59.7805 167.758 60.2563C167.935 60.4446 168.153 60.5915 168.395 60.6859C168.637 60.7804 168.897 60.8201 169.157 60.8021C169.503 60.8294 169.85 60.7768 170.171 60.6483C170.492 60.5198 170.778 60.3191 171.006 60.0623C171.482 59.3132 171.698 58.4322 171.622 57.5518V52.8703H173.673V62.2271H172.059ZM180.069 60.7536C180.58 60.7414 181.086 60.6577 181.572 60.5049V61.9846C181.303 62.1064 181.016 62.1882 180.722 62.2271C180.358 62.2878 179.989 62.3223 179.619 62.3302C177.713 62.3302 176.762 61.3438 176.767 59.371V54.35H175.503V53.4646L176.902 52.7248L177.604 50.754H178.837V52.8218H181.535V54.35H178.837V59.371C178.817 59.5659 178.838 59.7627 178.898 59.9494C178.959 60.1361 179.057 60.3086 179.188 60.4564C179.309 60.5668 179.452 60.6504 179.608 60.7017C179.764 60.7529 179.93 60.7706 180.094 60.7536H180.069ZM190.131 62.2271L189.829 61.0143H189.73C189.429 61.458 189.015 61.8157 188.529 62.0513C187.981 62.3122 187.381 62.447 186.773 62.4454C185.829 62.504 184.899 62.2045 184.173 61.6086C183.56 60.8952 183.255 59.9749 183.322 59.0435V52.8703H185.374V58.6312C185.332 59.2074 185.491 59.7805 185.824 60.2563C186 60.4446 186.218 60.5915 186.46 60.6859C186.702 60.7804 186.963 60.8201 187.222 60.8021C187.568 60.8299 187.915 60.7775 188.236 60.649C188.557 60.5205 188.843 60.3195 189.071 60.0623C189.547 59.3132 189.763 58.4322 189.687 57.5518V52.8703H191.739V62.2271H190.131ZM199.459 52.6702C199.796 52.671 200.133 52.7035 200.463 52.7672L200.26 54.635C199.963 54.5787 199.663 54.5463 199.36 54.5379C198.996 54.5213 198.633 54.5832 198.295 54.7194C197.958 54.8556 197.655 55.0627 197.407 55.3263C196.898 55.8769 196.629 56.6017 196.656 57.3456V62.1968H194.659V52.8703H196.255L196.508 54.4955H196.606C196.91 53.9673 197.332 53.5134 197.839 53.1675C198.316 52.8455 198.88 52.6722 199.459 52.6702V52.6702ZM206.015 62.3727C205.381 62.4095 204.746 62.3146 204.151 62.0942C203.557 61.8737 203.016 61.5327 202.564 61.0932C202.132 60.6205 201.8 60.0674 201.588 59.4665C201.377 58.8655 201.29 58.2289 201.332 57.5942C201.266 56.2983 201.674 55.0221 202.484 53.9982C202.882 53.5512 203.377 53.1993 203.933 52.9692C204.49 52.739 205.092 52.6368 205.694 52.6702C206.24 52.6446 206.785 52.7317 207.295 52.926C207.804 53.1203 208.266 53.4173 208.652 53.7981C209.033 54.2206 209.324 54.7144 209.507 55.2499C209.69 55.7854 209.762 56.3517 209.718 56.915V58.0005H203.365C203.357 58.7561 203.623 59.4897 204.117 60.0683C204.379 60.3244 204.692 60.5227 205.037 60.6503C205.383 60.7778 205.752 60.8316 206.12 60.8081C206.639 60.8137 207.158 60.7628 207.666 60.6565C208.204 60.5381 208.725 60.3569 209.219 60.1168V61.7663C208.743 61.9984 208.237 62.1637 207.715 62.2575C207.154 62.3538 206.584 62.3924 206.015 62.3727V62.3727ZM205.694 54.1984C205.408 54.1886 205.123 54.2374 204.857 54.3418C204.59 54.4462 204.349 54.6038 204.148 54.8048C203.719 55.3012 203.472 55.9246 203.446 56.5755H207.759C207.801 55.9392 207.606 55.3096 207.21 54.8048C207.014 54.6062 206.778 54.4498 206.517 54.3454C206.256 54.241 205.976 54.191 205.694 54.1984ZM224.986 57.5214C225.058 58.8261 224.629 60.1097 223.784 61.1174C223.355 61.5447 222.839 61.8775 222.27 62.0939C221.701 62.3103 221.091 62.4053 220.482 62.3727C219.656 62.3838 218.843 62.1742 218.128 61.7663C217.438 61.3687 216.895 60.7656 216.576 60.0441C216.202 59.2419 216.014 58.3676 216.027 57.4851C215.952 56.1896 216.394 54.9166 217.259 53.9376C217.691 53.5083 218.21 53.1735 218.783 52.9551C219.355 52.7367 219.967 52.6396 220.58 52.6702C221.188 52.6443 221.795 52.7497 222.357 52.9792C222.919 53.2086 223.423 53.5564 223.834 53.9982C224.662 54.9839 225.075 56.2451 224.986 57.5214V57.5214ZM218.079 57.5214C218.079 59.6863 218.88 60.7718 220.544 60.7718C222.207 60.7718 222.946 59.6681 222.946 57.5214C222.946 55.3748 222.145 54.3196 220.544 54.3196C220.189 54.2959 219.834 54.3601 219.511 54.5063C219.188 54.6525 218.908 54.876 218.695 55.1565C218.243 55.8617 218.027 56.689 218.079 57.5214V57.5214ZM232.09 54.3681H229.786V62.2514H227.734V54.3681H226.187V53.41L227.734 52.8036V52.1972C227.66 51.3046 227.948 50.4195 228.535 49.7352C228.862 49.4529 229.243 49.2378 229.656 49.1024C230.068 48.9671 230.504 48.9142 230.938 48.9469C231.653 48.9428 232.364 49.0597 233.039 49.2926L232.491 50.851C232.021 50.6974 231.531 50.6136 231.036 50.6024C230.851 50.5896 230.664 50.6184 230.491 50.6866C230.318 50.7549 230.164 50.8609 230.038 50.9965C229.812 51.3599 229.706 51.784 229.736 52.2094V52.8158H232.041V54.3439L232.09 54.3681ZM246.304 62.2514H244.253V56.4906C244.281 55.9222 244.142 55.3578 243.852 54.8654C243.696 54.6788 243.496 54.5323 243.27 54.4383C243.043 54.3443 242.797 54.3057 242.552 54.3257C242.228 54.2957 241.901 54.3472 241.602 54.4756C241.304 54.6039 241.043 54.8048 240.845 55.0594C240.423 55.8298 240.233 56.7029 240.297 57.576V62.2514H238.295V52.8703H239.897L240.198 54.0831H240.297C240.566 53.6322 240.968 53.2726 241.449 53.0523C241.964 52.8091 242.53 52.6906 243.101 52.7066C244.548 52.7066 245.565 53.1978 246.003 54.1802H246.15C246.449 53.7235 246.863 53.3515 247.352 53.1008C247.898 52.837 248.499 52.702 249.108 52.7066C249.561 52.672 250.016 52.7283 250.446 52.8722C250.876 53.0161 251.272 53.2444 251.609 53.5434C252.184 54.2719 252.469 55.1819 252.41 56.1025V62.2271H250.408V56.4663C250.436 55.8979 250.297 55.3336 250.007 54.8411C249.848 54.6588 249.647 54.5152 249.422 54.4216C249.196 54.3279 248.952 54.2868 248.707 54.3014C248.379 54.2671 248.047 54.3166 247.744 54.4451C247.441 54.5736 247.176 54.7769 246.976 55.0352C246.574 55.7054 246.384 56.4777 246.428 57.2546V62.2271L246.304 62.2514ZM263.52 57.5214C263.583 58.83 263.143 60.1142 262.287 61.1174C261.862 61.5408 261.351 61.8713 260.787 62.0876C260.223 62.3038 259.62 62.401 259.015 62.3727C258.19 62.3829 257.377 62.1734 256.662 61.7663C255.972 61.3687 255.428 60.7656 255.109 60.0441C254.735 59.2419 254.548 58.3676 254.561 57.4851C254.477 56.1938 254.908 54.9212 255.762 53.9376C256.198 53.5044 256.722 53.1673 257.3 52.9488C257.877 52.7302 258.496 52.6353 259.114 52.6702C259.725 52.6432 260.333 52.7488 260.898 52.9793C261.462 53.2099 261.968 53.5598 262.38 54.0043C263.182 55.0012 263.587 56.2516 263.52 57.5214V57.5214ZM256.613 57.5214C256.613 59.6863 257.414 60.7718 259.077 60.7718C260.741 60.7718 261.48 59.6863 261.48 57.5214C261.48 55.3566 260.679 54.3196 259.077 54.3196C258.722 54.2959 258.367 54.3601 258.045 54.5063C257.722 54.6525 257.441 54.876 257.229 55.1565C256.777 55.8617 256.561 56.689 256.613 57.5214V57.5214ZM274.228 62.2453H272.176V56.4845C272.228 55.9073 272.069 55.3308 271.727 54.8593C271.549 54.6713 271.33 54.5251 271.087 54.4317C270.844 54.3382 270.582 54.2999 270.322 54.3196C269.976 54.285 269.627 54.3337 269.305 54.4616C268.983 54.5894 268.698 54.7925 268.473 55.0534C268.021 55.8143 267.807 56.6897 267.857 57.57V62.2453H265.861V52.8703H267.457L267.759 54.0831H267.857C268.159 53.6417 268.573 53.2862 269.059 53.0523C269.609 52.8048 270.21 52.6864 270.815 52.7066C273.113 52.7066 274.216 53.8406 274.216 56.151L274.228 62.2453ZM281.184 62.3969C280.55 62.4349 279.915 62.3406 279.32 62.12C278.726 61.8995 278.185 61.5579 277.734 61.1174C277.301 60.6454 276.968 60.0923 276.756 59.4912C276.545 58.8901 276.458 58.2532 276.502 57.6185C276.435 56.3226 276.844 55.0464 277.654 54.0225C278.05 53.5721 278.544 53.2163 279.1 52.982C279.657 52.7478 280.26 52.6411 280.864 52.6702C281.409 52.6439 281.953 52.7308 282.462 52.9251C282.97 53.1194 283.431 53.4169 283.815 53.7981C284.198 54.2196 284.491 54.713 284.675 55.2487C284.859 55.7843 284.932 56.3512 284.887 56.915V58.0005H278.529C278.523 58.7555 278.79 59.4881 279.28 60.0683C279.542 60.3237 279.856 60.5217 280.201 60.6492C280.546 60.7767 280.915 60.8309 281.283 60.8081C281.805 60.814 282.325 60.7631 282.836 60.6565C283.37 60.5286 283.891 60.3478 284.388 60.1168V61.7663C283.913 61.9975 283.407 62.1628 282.885 62.2575C282.324 62.3538 281.754 62.3924 281.184 62.3727V62.3969ZM280.784 54.2165C280.496 54.2063 280.21 54.2549 279.943 54.3593C279.676 54.4637 279.433 54.6216 279.231 54.823C278.805 55.3209 278.558 55.9434 278.529 56.5936H282.842C282.884 55.9574 282.689 55.3278 282.293 54.823C282.105 54.6142 281.872 54.4497 281.611 54.3416C281.35 54.2334 281.067 54.1845 280.784 54.1984V54.2165ZM285.386 52.8885H287.592L289.539 58.2067C289.826 58.8888 290.033 59.6009 290.155 60.3291H290.205C290.274 59.9437 290.375 59.5644 290.507 59.1951C290.654 58.7524 291.357 56.63 292.706 52.8885H294.906L290.858 63.4763C290.106 65.3986 288.905 66.3871 287.161 66.3871C286.721 66.3877 286.282 66.3368 285.855 66.2355V64.6588C286.202 64.722 286.555 64.7565 286.908 64.7619C287.857 64.7619 288.56 64.2161 288.96 63.0822L289.311 62.1968L285.386 52.8885Z" fill="#BFBDB8"/>
</svg>
