<svg width="511" height="382" viewBox="0 0 511 382" fill="none" xmlns="http://www.w3.org/2000/svg">
<mask id="path-1-outside-1_300_91" maskUnits="userSpaceOnUse" x="-63.1147" y="-50.2649" width="584.041" height="486.171" fill="black">
<rect fill="white" x="-63.1147" y="-50.2649" width="584.041" height="486.171"/>
<path d="M387.359 76.786C380.043 75.4264 372.641 74.6089 365.213 74.3553C357.784 74.1016 350.345 74.4775 342.983 75.3649C328.257 77.1916 313.784 81.2202 300.395 87.5828C286.948 93.872 274.54 102.145 262.291 110.552C250.057 118.993 237.922 127.671 224.951 135.12L225.124 133.601C244.857 151.529 268.436 165.19 293.865 173.097C319.258 181.079 346.366 183.477 372.756 180.291C399.154 177.117 424.853 168.268 447.539 154.463C470.224 140.667 489.907 121.916 504.449 99.7271L504.492 101.836C489.98 81.7531 471.365 64.6651 450.08 52.0222C428.801 39.3494 404.819 31.3431 380.295 28.2709C368.015 26.7469 355.584 26.6836 343.271 27.8129C330.962 29.0259 318.786 31.5171 307.017 35.3093C301.164 37.2581 295.389 39.4396 289.769 42.0447C284.159 44.6517 278.636 47.4516 273.251 50.5478C262.461 56.6843 252.086 63.6059 241.778 70.6647C231.461 77.7116 221.179 84.8997 210.535 91.6133C205.213 94.9701 199.809 98.2177 194.256 101.219C188.71 104.242 183.047 107.066 177.192 109.501C175.735 110.127 174.278 110.752 172.787 111.289C171.302 111.847 169.831 112.438 168.334 112.953L163.811 114.448C162.312 114.972 160.762 115.331 159.237 115.777L156.938 116.425C156.174 116.627 155.389 116.784 154.619 116.964C153.063 117.301 151.528 117.694 149.968 117.999C146.831 118.545 143.704 119.143 140.541 119.445C137.392 119.895 134.199 119.984 131.03 120.212L126.254 120.25L123.863 120.258L121.474 120.153C115.116 119.871 108.786 119.077 102.551 117.794C90.0919 115.231 78.0512 110.742 66.9237 104.6C61.3609 101.524 56.0353 98.0287 51.0009 94.1557C45.9823 90.2547 41.2391 86.004 36.8251 81.4451C19.2523 63.1017 7.06631 39.6445 2.44545 14.6356L2.18693 13.2084L3.49452 12.6054C23.0447 3.56768 45.0354 0.451608 66.3087 2.69081C87.612 4.93586 108.274 12.6235 125.963 24.6142C134.798 30.6285 142.888 37.7076 150.173 45.5092C157.433 53.3368 163.781 61.9689 169.348 71.0486C180.394 89.2839 188.083 109.398 192.89 130.075C195.324 140.415 197 150.927 198.014 161.496C198.563 166.778 198.839 172.08 199.053 177.379C199.173 182.681 199.219 187.999 198.999 193.297C198.549 203.89 197.745 214.444 196.626 224.968C196.134 230.233 195.458 235.482 194.864 240.737C194.178 245.985 193.564 251.236 192.808 256.47C189.917 277.421 186.514 298.293 182.661 319.087C178.84 339.876 174.548 360.584 169.693 381.161C171.991 370.847 174.132 360.492 176.161 350.126C178.15 339.752 180.092 329.358 181.892 318.946C185.532 298.132 188.732 277.241 191.418 256.281C192.121 251.047 192.684 245.796 193.318 240.549C193.85 235.292 194.483 230.054 194.923 224.79C195.935 214.286 196.633 203.742 196.976 193.222C197.256 182.699 196.836 172.164 195.761 161.697C194.696 151.232 192.976 140.835 190.509 130.613C185.643 110.183 177.918 90.3619 166.944 72.4928C161.414 63.5963 155.143 55.155 147.978 47.5322C140.798 39.9274 132.853 33.0628 124.187 27.237C106.837 15.6333 86.6877 8.28415 65.9386 6.22003C45.2373 4.17562 23.9272 7.19719 5.06878 15.977L6.11786 13.9469C10.6501 38.1932 22.5427 60.9825 39.6194 78.7423C43.9154 83.1642 48.5208 87.2741 53.3895 91.0423C58.2741 94.7825 63.4459 98.1649 68.843 101.136C79.6392 107.068 91.309 111.392 103.366 113.845C109.393 115.076 115.514 115.83 121.649 116.089L123.947 116.187L126.256 116.173L130.868 116.124C133.934 115.896 137.011 115.815 140.057 115.366C143.116 115.064 146.138 114.476 149.168 113.951C150.674 113.656 152.165 113.275 153.669 112.938C154.417 112.764 155.171 112.611 155.915 112.405L158.138 111.774C159.61 111.338 161.117 110.981 162.572 110.469L166.955 109.008C168.41 108.496 169.837 107.917 171.288 107.373C172.735 106.849 174.158 106.237 175.571 105.624C181.272 103.241 186.811 100.465 192.244 97.4926C197.694 94.5436 203.02 91.3222 208.275 87.9936C218.802 81.3502 229.006 74.1365 239.365 67.0874C249.715 60.0265 260.201 53.0646 271.182 46.8515C276.656 43.7211 282.305 40.8629 288.048 38.2095C293.791 35.5561 299.743 33.3161 305.757 31.3368C317.818 27.4776 330.291 24.9513 342.89 23.7331C355.494 22.5986 368.218 22.6985 380.777 24.2771C405.866 27.4704 430.333 35.6958 452.058 48.6834C473.778 61.6392 492.749 79.1281 507.515 99.6544L508.272 100.703L507.567 101.766C503.797 107.393 499.771 112.846 495.45 118.065C491.067 123.23 486.464 128.197 481.565 132.879C476.624 137.511 471.487 141.929 466.105 146.019C460.688 150.071 455.106 153.905 449.305 157.385C426.107 171.318 399.927 180.145 373.104 183.216C346.281 186.286 318.821 183.685 293.126 175.446C267.417 167.278 243.584 153.329 223.85 134.987L222.894 134.107L224.021 133.478C236.944 126.217 249.134 117.685 261.472 109.346C273.813 101.05 286.36 92.8566 299.967 86.6504C313.524 80.3827 328.117 76.4292 342.929 74.7954C350.335 73.9994 357.806 73.7231 365.237 74.0703C372.657 74.4256 380.07 75.3386 387.359 76.786Z"/>
</mask>
<path d="M387.359 76.786C380.043 75.4264 372.641 74.6089 365.213 74.3553C357.784 74.1016 350.345 74.4775 342.983 75.3649C328.257 77.1916 313.784 81.2202 300.395 87.5828C286.948 93.872 274.54 102.145 262.291 110.552C250.057 118.993 237.922 127.671 224.951 135.12L225.124 133.601C244.857 151.529 268.436 165.19 293.865 173.097C319.258 181.079 346.366 183.477 372.756 180.291C399.154 177.117 424.853 168.268 447.539 154.463C470.224 140.667 489.907 121.916 504.449 99.7271L504.492 101.836C489.98 81.7531 471.365 64.6651 450.08 52.0222C428.801 39.3494 404.819 31.3431 380.295 28.2709C368.015 26.7469 355.584 26.6836 343.271 27.8129C330.962 29.0259 318.786 31.5171 307.017 35.3093C301.164 37.2581 295.389 39.4396 289.769 42.0447C284.159 44.6517 278.636 47.4516 273.251 50.5478C262.461 56.6843 252.086 63.6059 241.778 70.6647C231.461 77.7116 221.179 84.8997 210.535 91.6133C205.213 94.9701 199.809 98.2177 194.256 101.219C188.71 104.242 183.047 107.066 177.192 109.501C175.735 110.127 174.278 110.752 172.787 111.289C171.302 111.847 169.831 112.438 168.334 112.953L163.811 114.448C162.312 114.972 160.762 115.331 159.237 115.777L156.938 116.425C156.174 116.627 155.389 116.784 154.619 116.964C153.063 117.301 151.528 117.694 149.968 117.999C146.831 118.545 143.704 119.143 140.541 119.445C137.392 119.895 134.199 119.984 131.03 120.212L126.254 120.25L123.863 120.258L121.474 120.153C115.116 119.871 108.786 119.077 102.551 117.794C90.0919 115.231 78.0512 110.742 66.9237 104.6C61.3609 101.524 56.0353 98.0287 51.0009 94.1557C45.9823 90.2547 41.2391 86.004 36.8251 81.4451C19.2523 63.1017 7.06631 39.6445 2.44545 14.6356L2.18693 13.2084L3.49452 12.6054C23.0447 3.56768 45.0354 0.451608 66.3087 2.69081C87.612 4.93586 108.274 12.6235 125.963 24.6142C134.798 30.6285 142.888 37.7076 150.173 45.5092C157.433 53.3368 163.781 61.9689 169.348 71.0486C180.394 89.2839 188.083 109.398 192.89 130.075C195.324 140.415 197 150.927 198.014 161.496C198.563 166.778 198.839 172.08 199.053 177.379C199.173 182.681 199.219 187.999 198.999 193.297C198.549 203.89 197.745 214.444 196.626 224.968C196.134 230.233 195.458 235.482 194.864 240.737C194.178 245.985 193.564 251.236 192.808 256.47C189.917 277.421 186.514 298.293 182.661 319.087C178.84 339.876 174.548 360.584 169.693 381.161C171.991 370.847 174.132 360.492 176.161 350.126C178.15 339.752 180.092 329.358 181.892 318.946C185.532 298.132 188.732 277.241 191.418 256.281C192.121 251.047 192.684 245.796 193.318 240.549C193.85 235.292 194.483 230.054 194.923 224.79C195.935 214.286 196.633 203.742 196.976 193.222C197.256 182.699 196.836 172.164 195.761 161.697C194.696 151.232 192.976 140.835 190.509 130.613C185.643 110.183 177.918 90.3619 166.944 72.4928C161.414 63.5963 155.143 55.155 147.978 47.5322C140.798 39.9274 132.853 33.0628 124.187 27.237C106.837 15.6333 86.6877 8.28415 65.9386 6.22003C45.2373 4.17562 23.9272 7.19719 5.06878 15.977L6.11786 13.9469C10.6501 38.1932 22.5427 60.9825 39.6194 78.7423C43.9154 83.1642 48.5208 87.2741 53.3895 91.0423C58.2741 94.7825 63.4459 98.1649 68.843 101.136C79.6392 107.068 91.309 111.392 103.366 113.845C109.393 115.076 115.514 115.83 121.649 116.089L123.947 116.187L126.256 116.173L130.868 116.124C133.934 115.896 137.011 115.815 140.057 115.366C143.116 115.064 146.138 114.476 149.168 113.951C150.674 113.656 152.165 113.275 153.669 112.938C154.417 112.764 155.171 112.611 155.915 112.405L158.138 111.774C159.61 111.338 161.117 110.981 162.572 110.469L166.955 109.008C168.41 108.496 169.837 107.917 171.288 107.373C172.735 106.849 174.158 106.237 175.571 105.624C181.272 103.241 186.811 100.465 192.244 97.4926C197.694 94.5436 203.02 91.3222 208.275 87.9936C218.802 81.3502 229.006 74.1365 239.365 67.0874C249.715 60.0265 260.201 53.0646 271.182 46.8515C276.656 43.7211 282.305 40.8629 288.048 38.2095C293.791 35.5561 299.743 33.3161 305.757 31.3368C317.818 27.4776 330.291 24.9513 342.89 23.7331C355.494 22.5986 368.218 22.6985 380.777 24.2771C405.866 27.4704 430.333 35.6958 452.058 48.6834C473.778 61.6392 492.749 79.1281 507.515 99.6544L508.272 100.703L507.567 101.766C503.797 107.393 499.771 112.846 495.45 118.065C491.067 123.23 486.464 128.197 481.565 132.879C476.624 137.511 471.487 141.929 466.105 146.019C460.688 150.071 455.106 153.905 449.305 157.385C426.107 171.318 399.927 180.145 373.104 183.216C346.281 186.286 318.821 183.685 293.126 175.446C267.417 167.278 243.584 153.329 223.85 134.987L222.894 134.107L224.021 133.478C236.944 126.217 249.134 117.685 261.472 109.346C273.813 101.05 286.36 92.8566 299.967 86.6504C313.524 80.3827 328.117 76.4292 342.929 74.7954C350.335 73.9994 357.806 73.7231 365.237 74.0703C372.657 74.4256 380.07 75.3386 387.359 76.786Z" fill="url(#paint0_linear_300_91)" fill-opacity="0.12"/>
<path d="M387.359 76.786C380.043 75.4264 372.641 74.6089 365.213 74.3553C357.784 74.1016 350.345 74.4775 342.983 75.3649C328.257 77.1916 313.784 81.2202 300.395 87.5828C286.948 93.872 274.54 102.145 262.291 110.552C250.057 118.993 237.922 127.671 224.951 135.12L225.124 133.601C244.857 151.529 268.436 165.19 293.865 173.097C319.258 181.079 346.366 183.477 372.756 180.291C399.154 177.117 424.853 168.268 447.539 154.463C470.224 140.667 489.907 121.916 504.449 99.7271L504.492 101.836C489.98 81.7531 471.365 64.6651 450.08 52.0222C428.801 39.3494 404.819 31.3431 380.295 28.2709C368.015 26.7469 355.584 26.6836 343.271 27.8129C330.962 29.0259 318.786 31.5171 307.017 35.3093C301.164 37.2581 295.389 39.4396 289.769 42.0447C284.159 44.6517 278.636 47.4516 273.251 50.5478C262.461 56.6843 252.086 63.6059 241.778 70.6647C231.461 77.7116 221.179 84.8997 210.535 91.6133C205.213 94.9701 199.809 98.2177 194.256 101.219C188.71 104.242 183.047 107.066 177.192 109.501C175.735 110.127 174.278 110.752 172.787 111.289C171.302 111.847 169.831 112.438 168.334 112.953L163.811 114.448C162.312 114.972 160.762 115.331 159.237 115.777L156.938 116.425C156.174 116.627 155.389 116.784 154.619 116.964C153.063 117.301 151.528 117.694 149.968 117.999C146.831 118.545 143.704 119.143 140.541 119.445C137.392 119.895 134.199 119.984 131.03 120.212L126.254 120.25L123.863 120.258L121.474 120.153C115.116 119.871 108.786 119.077 102.551 117.794C90.0919 115.231 78.0512 110.742 66.9237 104.6C61.3609 101.524 56.0353 98.0287 51.0009 94.1557C45.9823 90.2547 41.2391 86.004 36.8251 81.4451C19.2523 63.1017 7.06631 39.6445 2.44545 14.6356L2.18693 13.2084L3.49452 12.6054C23.0447 3.56768 45.0354 0.451608 66.3087 2.69081C87.612 4.93586 108.274 12.6235 125.963 24.6142C134.798 30.6285 142.888 37.7076 150.173 45.5092C157.433 53.3368 163.781 61.9689 169.348 71.0486C180.394 89.2839 188.083 109.398 192.89 130.075C195.324 140.415 197 150.927 198.014 161.496C198.563 166.778 198.839 172.08 199.053 177.379C199.173 182.681 199.219 187.999 198.999 193.297C198.549 203.89 197.745 214.444 196.626 224.968C196.134 230.233 195.458 235.482 194.864 240.737C194.178 245.985 193.564 251.236 192.808 256.47C189.917 277.421 186.514 298.293 182.661 319.087C178.84 339.876 174.548 360.584 169.693 381.161C171.991 370.847 174.132 360.492 176.161 350.126C178.15 339.752 180.092 329.358 181.892 318.946C185.532 298.132 188.732 277.241 191.418 256.281C192.121 251.047 192.684 245.796 193.318 240.549C193.85 235.292 194.483 230.054 194.923 224.79C195.935 214.286 196.633 203.742 196.976 193.222C197.256 182.699 196.836 172.164 195.761 161.697C194.696 151.232 192.976 140.835 190.509 130.613C185.643 110.183 177.918 90.3619 166.944 72.4928C161.414 63.5963 155.143 55.155 147.978 47.5322C140.798 39.9274 132.853 33.0628 124.187 27.237C106.837 15.6333 86.6877 8.28415 65.9386 6.22003C45.2373 4.17562 23.9272 7.19719 5.06878 15.977L6.11786 13.9469C10.6501 38.1932 22.5427 60.9825 39.6194 78.7423C43.9154 83.1642 48.5208 87.2741 53.3895 91.0423C58.2741 94.7825 63.4459 98.1649 68.843 101.136C79.6392 107.068 91.309 111.392 103.366 113.845C109.393 115.076 115.514 115.83 121.649 116.089L123.947 116.187L126.256 116.173L130.868 116.124C133.934 115.896 137.011 115.815 140.057 115.366C143.116 115.064 146.138 114.476 149.168 113.951C150.674 113.656 152.165 113.275 153.669 112.938C154.417 112.764 155.171 112.611 155.915 112.405L158.138 111.774C159.61 111.338 161.117 110.981 162.572 110.469L166.955 109.008C168.41 108.496 169.837 107.917 171.288 107.373C172.735 106.849 174.158 106.237 175.571 105.624C181.272 103.241 186.811 100.465 192.244 97.4926C197.694 94.5436 203.02 91.3222 208.275 87.9936C218.802 81.3502 229.006 74.1365 239.365 67.0874C249.715 60.0265 260.201 53.0646 271.182 46.8515C276.656 43.7211 282.305 40.8629 288.048 38.2095C293.791 35.5561 299.743 33.3161 305.757 31.3368C317.818 27.4776 330.291 24.9513 342.89 23.7331C355.494 22.5986 368.218 22.6985 380.777 24.2771C405.866 27.4704 430.333 35.6958 452.058 48.6834C473.778 61.6392 492.749 79.1281 507.515 99.6544L508.272 100.703L507.567 101.766C503.797 107.393 499.771 112.846 495.45 118.065C491.067 123.23 486.464 128.197 481.565 132.879C476.624 137.511 471.487 141.929 466.105 146.019C460.688 150.071 455.106 153.905 449.305 157.385C426.107 171.318 399.927 180.145 373.104 183.216C346.281 186.286 318.821 183.685 293.126 175.446C267.417 167.278 243.584 153.329 223.85 134.987L222.894 134.107L224.021 133.478C236.944 126.217 249.134 117.685 261.472 109.346C273.813 101.05 286.36 92.8566 299.967 86.6504C313.524 80.3827 328.117 76.4292 342.929 74.7954C350.335 73.9994 357.806 73.7231 365.237 74.0703C372.657 74.4256 380.07 75.3386 387.359 76.786Z" stroke="url(#paint1_linear_300_91)" stroke-opacity="0.12" stroke-width="2.92571" mask="url(#path-1-outside-1_300_91)"/>
<defs>
<linearGradient id="paint0_linear_300_91" x1="0.0613396" y1="24.0672" x2="509.682" y2="173.835" gradientUnits="userSpaceOnUse">
<stop stop-color="#0B3F01"/>
<stop offset="1" stop-color="#73E75F"/>
</linearGradient>
<linearGradient id="paint1_linear_300_91" x1="0.0613396" y1="24.0672" x2="509.682" y2="173.835" gradientUnits="userSpaceOnUse">
<stop stop-color="#0B3F01"/>
<stop offset="1" stop-color="#73E75F"/>
</linearGradient>
</defs>
</svg>
