<svg width="126" height="126" viewBox="0 0 126 126" fill="none" xmlns="http://www.w3.org/2000/svg">
<path d="M55.3325 122.581C84.0814 122.581 107.476 99.194 107.483 70.4446C107.483 68.3751 105.803 66.6862 103.725 66.6862H59.1055V22.0708C59.1055 19.9937 57.4105 18.3086 55.3325 18.3086C26.5943 18.3086 3.21289 41.6919 3.21289 70.43C3.21289 99.1865 26.5943 122.581 55.3325 122.581V122.581ZM51.5886 25.9796V70.4446C51.5886 72.5221 53.2695 74.203 55.347 74.203H99.8083C97.8849 97.054 78.6711 115.064 55.332 115.064C30.7377 115.064 10.7293 95.0432 10.7293 70.43C10.7298 47.0946 28.7395 27.8884 51.5886 25.9796V25.9796Z" fill="white" fill-opacity="0.3"/>
<path d="M108.983 70.445V70.4446C108.983 67.549 106.634 65.1862 103.725 65.1862H60.6055V22.0708C60.6055 19.16 58.2335 16.8086 55.3325 16.8086C25.7659 16.8086 1.71289 40.8636 1.71289 70.43C1.71289 100.014 25.7651 124.081 55.3325 124.081C84.9096 124.081 108.976 100.023 108.983 70.445ZM50.0886 27.6412V70.4446C50.0886 73.3506 52.4411 75.703 55.347 75.703H98.1456C95.536 97.0069 77.3277 113.564 55.332 113.564C31.567 113.564 12.2293 94.2157 12.2293 70.43C12.2297 48.4379 28.7867 30.2369 50.0886 27.6412Z" stroke="white" stroke-opacity="0.3" stroke-width="3"/>
<path d="M70.6578 58.8907H119.032C121.109 58.8907 122.79 57.1952 122.79 55.1177C122.79 26.3871 99.4035 3.00752 70.6578 3C68.5836 3 66.8994 4.6842 66.8994 6.75844V55.1323C66.8994 57.2093 68.5803 58.8907 70.6578 58.8907V58.8907ZM74.4163 10.6743C96.0304 12.491 113.314 29.7705 115.12 51.3738H74.4163V10.6743Z" fill="white" fill-opacity="0.3"/>
<path d="M70.6582 1.5H70.6578C67.7552 1.5 65.3994 3.85578 65.3994 6.75844V55.1323C65.3994 58.0376 67.7518 60.3907 70.6578 60.3907H119.032C121.945 60.3907 124.29 58.0161 124.29 55.1177C124.29 25.5581 100.231 1.50774 70.6582 1.5ZM75.9163 49.8738V12.3367C95.4983 14.7327 111.071 30.3031 113.458 49.8738H75.9163Z" stroke="white" stroke-opacity="0.3" stroke-width="3"/>
</svg>
