<svg width="34" height="35" viewBox="0 0 34 35" fill="none" xmlns="http://www.w3.org/2000/svg">
<path d="M17.5456 8.1987L23.4063 14.0725C23.6161 14.2823 23.957 14.2823 24.1668 14.0725L27.261 10.9783C27.4708 10.7685 27.4708 10.4276 27.261 10.2178L17.5325 0.489365C17.3228 0.279587 16.9819 0.279587 16.7721 0.489365L7.05675 10.2047C6.84697 10.4145 6.84697 10.7554 7.05675 10.9651L10.151 14.0594C10.3608 14.2692 10.7016 14.2692 10.9114 14.0594L16.7721 8.1987C16.995 7.98893 17.3359 7.98893 17.5456 8.1987Z" fill="white"/>
<path d="M3.58261 13.6925L0.488388 16.7867C0.27861 16.9965 0.27861 17.3374 0.488388 17.5472L3.58261 20.6414C3.79239 20.8512 4.13328 20.8512 4.34306 20.6414L7.43728 17.5472C7.64706 17.3374 7.64706 16.9965 7.43728 16.7867L4.34306 13.6925C4.13328 13.4827 3.79239 13.4827 3.58261 13.6925Z" fill="white"/>
<path d="M17.5458 33.8576L27.2742 24.1292C27.484 23.9194 27.484 23.5785 27.2742 23.3687L24.18 20.2745C23.9702 20.0647 23.6294 20.0647 23.4196 20.2745L17.5589 26.1483C17.3491 26.3581 17.0082 26.3581 16.7985 26.1483L10.9378 20.2876C10.728 20.0779 10.3871 20.0779 10.1773 20.2876L7.08311 23.3819C6.87334 23.5916 6.87334 23.9325 7.08311 24.1423L16.8116 33.8708C16.9951 34.0674 17.336 34.0674 17.5458 33.8576Z" fill="white"/>
<path d="M29.9889 13.6925L26.8946 16.7867C26.6849 16.9965 26.6849 17.3374 26.8946 17.5472L29.9889 20.6414C30.1986 20.8512 30.5395 20.8512 30.7493 20.6414L33.8435 17.5472C34.0533 17.3374 34.0533 16.9965 33.8435 16.7867L30.7493 13.6925C30.5395 13.4827 30.1986 13.4827 29.9889 13.6925Z" fill="white"/>
<path d="M20.6926 16.7884L17.5459 13.6417C17.3361 13.4319 16.9952 13.4319 16.7854 13.6417L13.6388 16.7884C13.429 16.9982 13.429 17.339 13.6388 17.5488L16.7854 20.6955C16.9952 20.9053 17.3361 20.9053 17.5459 20.6955L20.6926 17.5488C20.9155 17.339 20.9155 16.9982 20.6926 16.7884Z" fill="white"/>
</svg>
