<svg width="293" height="269" viewBox="0 0 293 269" fill="none" xmlns="http://www.w3.org/2000/svg">
<mask id="path-1-outside-1_300_99" maskUnits="userSpaceOnUse" x="-115.085" y="-31.1967" width="431.013" height="426.883" fill="black">
<rect fill="white" x="-115.085" y="-31.1967" width="431.013" height="426.883"/>
<path d="M231.319 172.649C227.663 169.307 223.769 166.242 219.661 163.485C215.553 160.728 211.218 158.324 206.746 156.235C197.783 152.087 188.188 149.271 178.385 148.156C168.575 146.979 158.654 147.288 148.776 147.729C138.894 148.195 128.985 148.828 119.036 148.474L119.668 147.677C124.51 164.748 133.026 180.762 144.612 194.175C156.152 207.618 170.624 218.509 186.655 225.993C202.687 233.486 220.32 237.527 237.995 237.708C255.665 237.894 273.382 234.224 289.405 226.803L288.687 228.01C287.553 211.557 283.047 195.354 275.468 180.723C267.904 166.077 257.17 153.116 244.395 142.753C237.993 137.572 230.991 133.163 223.637 129.469C216.256 125.824 208.5 122.949 200.516 120.951C196.524 119.993 192.494 119.194 188.402 118.689C184.315 118.188 180.209 117.827 176.078 117.682C167.822 117.353 159.526 117.614 151.218 117.976C142.91 118.328 134.572 118.772 126.196 118.821C122.008 118.845 117.812 118.779 113.619 118.521C109.422 118.278 105.229 117.882 101.064 117.198C100.021 117.039 98.9775 116.88 97.9464 116.658C96.9111 116.451 95.8719 116.268 94.8451 116.032L91.7635 115.285C90.7322 115.054 89.7304 114.712 88.7115 114.427L87.185 113.984C86.6823 113.83 86.1832 113.642 85.6848 113.473C84.6873 113.117 83.6816 112.798 82.693 112.422C80.7286 111.626 78.751 110.865 76.858 109.923C74.9203 109.069 73.0849 107.996 71.2143 107.01L68.5025 105.351L67.1487 104.515L65.8358 103.615C62.3427 101.219 59.0455 98.5429 55.9741 95.625C49.8363 89.7938 44.6125 83.0217 40.4861 75.6367C38.4252 71.9417 36.6459 68.0934 35.164 64.134C33.7008 60.1644 32.5162 56.0941 31.6261 51.9654C28.1505 35.4193 29.5175 17.8789 35.7047 2.12309L36.0607 1.22581L37.0116 1.34509C51.237 3.1164 64.7581 9.09203 75.9899 17.8411C87.2366 26.6039 96.2062 38.2163 101.982 51.214C104.859 57.7204 106.939 64.5659 108.311 71.5369C109.659 78.5136 110.208 85.6238 110.159 92.7122C109.986 106.901 107.254 120.971 102.696 134.345C100.433 141.043 97.6825 147.572 94.5371 153.9C92.9888 157.078 91.2798 160.17 89.5364 163.24C87.7394 166.278 85.894 169.299 83.9062 172.214C79.9257 178.041 75.7583 183.722 71.4239 189.274C69.2935 192.075 67.0648 194.804 64.8803 197.564C62.6468 200.287 60.4524 203.038 58.1842 205.73C49.1803 216.55 39.9152 227.146 30.423 237.539C20.9502 247.941 11.2406 258.131 1.25839 268.049C6.18522 263.03 11.0376 257.932 15.831 252.789C20.6046 247.628 25.3581 242.438 30.0378 237.189C39.417 226.709 48.574 216.031 57.4653 205.134C59.7041 202.424 61.8692 199.655 64.0734 196.913C66.2236 194.131 68.4233 191.394 70.5244 188.574C74.791 182.996 78.8951 177.284 82.7896 171.46C86.6499 165.614 90.1188 159.513 93.1936 153.221C96.2734 146.934 98.9593 140.455 101.161 133.811C105.599 120.556 108.207 106.639 108.294 92.6828C108.299 85.7107 107.725 78.7352 106.358 71.9075C104.977 65.085 102.903 58.4114 100.056 52.0713C94.3353 39.4112 85.5364 28.1705 74.5392 19.7049C63.5621 11.2672 50.4587 5.47755 36.715 3.80391L38.0219 3.02591C32.0529 18.3197 30.7551 35.3795 34.1557 51.4214C35.0274 55.4311 36.1836 59.3734 37.6088 63.2152C39.0528 67.0468 40.785 70.7773 42.7892 74.3547C46.8021 81.5046 51.8747 88.0526 57.8237 93.6801C60.7959 96.4964 63.9893 99.0752 67.3644 101.38L68.6283 102.244L69.9378 103.048L72.5614 104.643C74.3733 105.593 76.1405 106.63 78.0196 107.448C79.854 108.353 81.7683 109.084 83.6648 109.853C84.6195 110.216 85.5962 110.526 86.5644 110.865C87.0483 111.029 87.528 111.208 88.0208 111.353L89.4989 111.779C90.4838 112.05 91.4612 112.379 92.4636 112.601L95.4533 113.318C96.4556 113.54 97.4659 113.715 98.4772 113.918C99.4792 114.131 100.498 114.286 101.513 114.437C105.571 115.096 109.678 115.477 113.793 115.708C117.91 115.959 122.053 116.013 126.192 115.981C134.477 115.931 142.781 115.445 151.113 115.106C159.445 114.758 167.819 114.513 176.209 114.866C180.403 115.023 184.6 115.395 188.778 115.916C192.957 116.437 197.108 117.266 201.202 118.263C209.374 120.326 217.31 123.286 224.857 127.03C232.378 130.823 239.532 135.356 246.072 140.666C259.125 151.297 270.055 164.551 277.76 179.532C285.474 194.493 290.041 211.048 291.163 227.841L291.221 228.699L290.449 229.052C286.34 230.905 282.147 232.569 277.869 233.998C273.575 235.374 269.227 236.562 264.812 237.483C260.391 238.362 255.935 239.051 251.455 239.469C246.968 239.852 242.466 240.055 237.964 239.981C219.956 239.692 202.058 235.469 185.823 227.768C169.588 220.067 154.988 208.936 143.368 195.242C131.716 181.583 123.158 165.317 118.46 148.011L118.23 147.178L119.088 147.219C128.944 147.663 138.833 147.13 148.737 146.76C158.628 146.414 168.6 146.198 178.471 147.479C188.336 148.707 197.972 151.607 206.916 155.894C211.38 158.05 215.699 160.522 219.775 163.333C223.842 166.143 227.71 169.267 231.319 172.649Z"/>
</mask>
<path d="M231.319 172.649C227.663 169.307 223.769 166.242 219.661 163.485C215.553 160.728 211.218 158.324 206.746 156.235C197.783 152.087 188.188 149.271 178.385 148.156C168.575 146.979 158.654 147.288 148.776 147.729C138.894 148.195 128.985 148.828 119.036 148.474L119.668 147.677C124.51 164.748 133.026 180.762 144.612 194.175C156.152 207.618 170.624 218.509 186.655 225.993C202.687 233.486 220.32 237.527 237.995 237.708C255.665 237.894 273.382 234.224 289.405 226.803L288.687 228.01C287.553 211.557 283.047 195.354 275.468 180.723C267.904 166.077 257.17 153.116 244.395 142.753C237.993 137.572 230.991 133.163 223.637 129.469C216.256 125.824 208.5 122.949 200.516 120.951C196.524 119.993 192.494 119.194 188.402 118.689C184.315 118.188 180.209 117.827 176.078 117.682C167.822 117.353 159.526 117.614 151.218 117.976C142.91 118.328 134.572 118.772 126.196 118.821C122.008 118.845 117.812 118.779 113.619 118.521C109.422 118.278 105.229 117.882 101.064 117.198C100.021 117.039 98.9775 116.88 97.9464 116.658C96.9111 116.451 95.8719 116.268 94.8451 116.032L91.7635 115.285C90.7322 115.054 89.7304 114.712 88.7115 114.427L87.185 113.984C86.6823 113.83 86.1832 113.642 85.6848 113.473C84.6873 113.117 83.6816 112.798 82.693 112.422C80.7286 111.626 78.751 110.865 76.858 109.923C74.9203 109.069 73.0849 107.996 71.2143 107.01L68.5025 105.351L67.1487 104.515L65.8358 103.615C62.3427 101.219 59.0455 98.5429 55.9741 95.625C49.8363 89.7938 44.6125 83.0217 40.4861 75.6367C38.4252 71.9417 36.6459 68.0934 35.164 64.134C33.7008 60.1644 32.5162 56.0941 31.6261 51.9654C28.1505 35.4193 29.5175 17.8789 35.7047 2.12309L36.0607 1.22581L37.0116 1.34509C51.237 3.1164 64.7581 9.09203 75.9899 17.8411C87.2366 26.6039 96.2062 38.2163 101.982 51.214C104.859 57.7204 106.939 64.5659 108.311 71.5369C109.659 78.5136 110.208 85.6238 110.159 92.7122C109.986 106.901 107.254 120.971 102.696 134.345C100.433 141.043 97.6825 147.572 94.5371 153.9C92.9888 157.078 91.2798 160.17 89.5364 163.24C87.7394 166.278 85.894 169.299 83.9062 172.214C79.9257 178.041 75.7583 183.722 71.4239 189.274C69.2935 192.075 67.0648 194.804 64.8803 197.564C62.6468 200.287 60.4524 203.038 58.1842 205.73C49.1803 216.55 39.9152 227.146 30.423 237.539C20.9502 247.941 11.2406 258.131 1.25839 268.049C6.18522 263.03 11.0376 257.932 15.831 252.789C20.6046 247.628 25.3581 242.438 30.0378 237.189C39.417 226.709 48.574 216.031 57.4653 205.134C59.7041 202.424 61.8692 199.655 64.0734 196.913C66.2236 194.131 68.4233 191.394 70.5244 188.574C74.791 182.996 78.8951 177.284 82.7896 171.46C86.6499 165.614 90.1188 159.513 93.1936 153.221C96.2734 146.934 98.9593 140.455 101.161 133.811C105.599 120.556 108.207 106.639 108.294 92.6828C108.299 85.7107 107.725 78.7352 106.358 71.9075C104.977 65.085 102.903 58.4114 100.056 52.0713C94.3353 39.4112 85.5364 28.1705 74.5392 19.7049C63.5621 11.2672 50.4587 5.47755 36.715 3.80391L38.0219 3.02591C32.0529 18.3197 30.7551 35.3795 34.1557 51.4214C35.0274 55.4311 36.1836 59.3734 37.6088 63.2152C39.0528 67.0468 40.785 70.7773 42.7892 74.3547C46.8021 81.5046 51.8747 88.0526 57.8237 93.6801C60.7959 96.4964 63.9893 99.0752 67.3644 101.38L68.6283 102.244L69.9378 103.048L72.5614 104.643C74.3733 105.593 76.1405 106.63 78.0196 107.448C79.854 108.353 81.7683 109.084 83.6648 109.853C84.6195 110.216 85.5962 110.526 86.5644 110.865C87.0483 111.029 87.528 111.208 88.0208 111.353L89.4989 111.779C90.4838 112.05 91.4612 112.379 92.4636 112.601L95.4533 113.318C96.4556 113.54 97.4659 113.715 98.4772 113.918C99.4792 114.131 100.498 114.286 101.513 114.437C105.571 115.096 109.678 115.477 113.793 115.708C117.91 115.959 122.053 116.013 126.192 115.981C134.477 115.931 142.781 115.445 151.113 115.106C159.445 114.758 167.819 114.513 176.209 114.866C180.403 115.023 184.6 115.395 188.778 115.916C192.957 116.437 197.108 117.266 201.202 118.263C209.374 120.326 217.31 123.286 224.857 127.03C232.378 130.823 239.532 135.356 246.072 140.666C259.125 151.297 270.055 164.551 277.76 179.532C285.474 194.493 290.041 211.048 291.163 227.841L291.221 228.699L290.449 229.052C286.34 230.905 282.147 232.569 277.869 233.998C273.575 235.374 269.227 236.562 264.812 237.483C260.391 238.362 255.935 239.051 251.455 239.469C246.968 239.852 242.466 240.055 237.964 239.981C219.956 239.692 202.058 235.469 185.823 227.768C169.588 220.067 154.988 208.936 143.368 195.242C131.716 181.583 123.158 165.317 118.46 148.011L118.23 147.178L119.088 147.219C128.944 147.663 138.833 147.13 148.737 146.76C158.628 146.414 168.6 146.198 178.471 147.479C188.336 148.707 197.972 151.607 206.916 155.894C211.38 158.05 215.699 160.522 219.775 163.333C223.842 166.143 227.71 169.267 231.319 172.649Z" fill="url(#paint0_linear_300_99)" fill-opacity="0.12"/>
<path d="M231.319 172.649C227.663 169.307 223.769 166.242 219.661 163.485C215.553 160.728 211.218 158.324 206.746 156.235C197.783 152.087 188.188 149.271 178.385 148.156C168.575 146.979 158.654 147.288 148.776 147.729C138.894 148.195 128.985 148.828 119.036 148.474L119.668 147.677C124.51 164.748 133.026 180.762 144.612 194.175C156.152 207.618 170.624 218.509 186.655 225.993C202.687 233.486 220.32 237.527 237.995 237.708C255.665 237.894 273.382 234.224 289.405 226.803L288.687 228.01C287.553 211.557 283.047 195.354 275.468 180.723C267.904 166.077 257.17 153.116 244.395 142.753C237.993 137.572 230.991 133.163 223.637 129.469C216.256 125.824 208.5 122.949 200.516 120.951C196.524 119.993 192.494 119.194 188.402 118.689C184.315 118.188 180.209 117.827 176.078 117.682C167.822 117.353 159.526 117.614 151.218 117.976C142.91 118.328 134.572 118.772 126.196 118.821C122.008 118.845 117.812 118.779 113.619 118.521C109.422 118.278 105.229 117.882 101.064 117.198C100.021 117.039 98.9775 116.88 97.9464 116.658C96.9111 116.451 95.8719 116.268 94.8451 116.032L91.7635 115.285C90.7322 115.054 89.7304 114.712 88.7115 114.427L87.185 113.984C86.6823 113.83 86.1832 113.642 85.6848 113.473C84.6873 113.117 83.6816 112.798 82.693 112.422C80.7286 111.626 78.751 110.865 76.858 109.923C74.9203 109.069 73.0849 107.996 71.2143 107.01L68.5025 105.351L67.1487 104.515L65.8358 103.615C62.3427 101.219 59.0455 98.5429 55.9741 95.625C49.8363 89.7938 44.6125 83.0217 40.4861 75.6367C38.4252 71.9417 36.6459 68.0934 35.164 64.134C33.7008 60.1644 32.5162 56.0941 31.6261 51.9654C28.1505 35.4193 29.5175 17.8789 35.7047 2.12309L36.0607 1.22581L37.0116 1.34509C51.237 3.1164 64.7581 9.09203 75.9899 17.8411C87.2366 26.6039 96.2062 38.2163 101.982 51.214C104.859 57.7204 106.939 64.5659 108.311 71.5369C109.659 78.5136 110.208 85.6238 110.159 92.7122C109.986 106.901 107.254 120.971 102.696 134.345C100.433 141.043 97.6825 147.572 94.5371 153.9C92.9888 157.078 91.2798 160.17 89.5364 163.24C87.7394 166.278 85.894 169.299 83.9062 172.214C79.9257 178.041 75.7583 183.722 71.4239 189.274C69.2935 192.075 67.0648 194.804 64.8803 197.564C62.6468 200.287 60.4524 203.038 58.1842 205.73C49.1803 216.55 39.9152 227.146 30.423 237.539C20.9502 247.941 11.2406 258.131 1.25839 268.049C6.18522 263.03 11.0376 257.932 15.831 252.789C20.6046 247.628 25.3581 242.438 30.0378 237.189C39.417 226.709 48.574 216.031 57.4653 205.134C59.7041 202.424 61.8692 199.655 64.0734 196.913C66.2236 194.131 68.4233 191.394 70.5244 188.574C74.791 182.996 78.8951 177.284 82.7896 171.46C86.6499 165.614 90.1188 159.513 93.1936 153.221C96.2734 146.934 98.9593 140.455 101.161 133.811C105.599 120.556 108.207 106.639 108.294 92.6828C108.299 85.7107 107.725 78.7352 106.358 71.9075C104.977 65.085 102.903 58.4114 100.056 52.0713C94.3353 39.4112 85.5364 28.1705 74.5392 19.7049C63.5621 11.2672 50.4587 5.47755 36.715 3.80391L38.0219 3.02591C32.0529 18.3197 30.7551 35.3795 34.1557 51.4214C35.0274 55.4311 36.1836 59.3734 37.6088 63.2152C39.0528 67.0468 40.785 70.7773 42.7892 74.3547C46.8021 81.5046 51.8747 88.0526 57.8237 93.6801C60.7959 96.4964 63.9893 99.0752 67.3644 101.38L68.6283 102.244L69.9378 103.048L72.5614 104.643C74.3733 105.593 76.1405 106.63 78.0196 107.448C79.854 108.353 81.7683 109.084 83.6648 109.853C84.6195 110.216 85.5962 110.526 86.5644 110.865C87.0483 111.029 87.528 111.208 88.0208 111.353L89.4989 111.779C90.4838 112.05 91.4612 112.379 92.4636 112.601L95.4533 113.318C96.4556 113.54 97.4659 113.715 98.4772 113.918C99.4792 114.131 100.498 114.286 101.513 114.437C105.571 115.096 109.678 115.477 113.793 115.708C117.91 115.959 122.053 116.013 126.192 115.981C134.477 115.931 142.781 115.445 151.113 115.106C159.445 114.758 167.819 114.513 176.209 114.866C180.403 115.023 184.6 115.395 188.778 115.916C192.957 116.437 197.108 117.266 201.202 118.263C209.374 120.326 217.31 123.286 224.857 127.03C232.378 130.823 239.532 135.356 246.072 140.666C259.125 151.297 270.055 164.551 277.76 179.532C285.474 194.493 290.041 211.048 291.163 227.841L291.221 228.699L290.449 229.052C286.34 230.905 282.147 232.569 277.869 233.998C273.575 235.374 269.227 236.562 264.812 237.483C260.391 238.362 255.935 239.051 251.455 239.469C246.968 239.852 242.466 240.055 237.964 239.981C219.956 239.692 202.058 235.469 185.823 227.768C169.588 220.067 154.988 208.936 143.368 195.242C131.716 181.583 123.158 165.317 118.46 148.011L118.23 147.178L119.088 147.219C128.944 147.663 138.833 147.13 148.737 146.76C158.628 146.414 168.6 146.198 178.471 147.479C188.336 148.707 197.972 151.607 206.916 155.894C211.38 158.05 215.699 160.522 219.775 163.333C223.842 166.143 227.71 169.267 231.319 172.649Z" stroke="url(#paint1_linear_300_99)" stroke-opacity="0.12" stroke-width="1.94728" mask="url(#path-1-outside-1_300_99)"/>
<defs>
<linearGradient id="paint0_linear_300_99" x1="31.0396" y1="6.6133" x2="266.29" y2="270.515" gradientUnits="userSpaceOnUse">
<stop stop-color="#0B3F01"/>
<stop offset="1" stop-color="#73E75F"/>
</linearGradient>
<linearGradient id="paint1_linear_300_99" x1="31.0396" y1="6.6133" x2="266.29" y2="270.515" gradientUnits="userSpaceOnUse">
<stop stop-color="#0B3F01"/>
<stop offset="1" stop-color="#73E75F"/>
</linearGradient>
</defs>
</svg>
